<svg xmlns="http://www.w3.org/2000/svg" xmlns:xlink="http://www.w3.org/1999/xlink" version="1.2" viewBox="2.62 2.57 232.11 232.11"><path fill="#fff" d="M220.623 118.62c0 56.311-45.656 101.959-101.959 101.959-56.31 0-101.958-45.648-101.958-101.959 0-56.303 45.647-101.958 101.958-101.958 56.303 0 101.959 45.655 101.959 101.958"/><path fill="#d1bd8a" d="M234.727 118.62c0-64.094-51.954-116.049-116.049-116.049-64.094 0-116.057 51.955-116.057 116.05s51.963 116.056 116.057 116.056c64.095 0 116.05-51.962 116.05-116.057m-4.753 0c0 61.474-49.83 111.304-111.296 111.304-61.474 0-111.304-49.83-111.304-111.304 0-61.465 49.83-111.296 111.304-111.296 61.466 0 111.296 49.83 111.296 111.296"/><path d="M229.958 118.62c0-61.465-49.83-111.296-111.296-111.296-61.474 0-111.304 49.83-111.304 111.296 0 61.474 49.83 111.304 111.304 111.304 61.466 0 111.296-49.83 111.296-111.304m-9.338 0c0 56.311-45.655 101.959-101.958 101.959-56.31 0-101.959-45.648-101.959-101.959 0-56.303 45.648-101.958 101.959-101.958 56.303 0 101.958 45.655 101.958 101.958"/><path d="M75.288 160.449c-3.773-16.608 1.507-36.997 23.151-55.863-6.544-4.025-13.585-11.58-17.365-24.414-1.003-4.523-1.76-8.556-1.76-12.574 6.543-3.275 13.34-3.528 20.633-1.768 0 3.268.505 6.544 1.768 10.317 3.773 12.582 11.319 19.883 18.865 25.921-25.914 18.116-30.191 37.747-26.419 54.353 6.291 22.89 23.901 35.23 39.76 34.471 12.329-1.002 25.163-9.811 30.443-23.648l15.1-4.539c-9.811 23.152-25.913 39.01-54.352 39.01-24.154 0-45.292-22.149-49.823-41.267m38.75-10.569c-3.269-4.278-9.055-10.064-15.85-14.847 2.012-7.302 5.28-12.33 8.808-16.356 10.822 6.039 19.37 14.09 24.154 22.394 9.82 16.608 5.288 34.976-11.075 44.037a42.8 42.8 0 0 1-9.559-6.544c9.56-6.038 11.825-17.365 3.52-28.684M41.823 170.26l15.1-4.53c8.304 9.314 16.86 14.847 26.419 16.607 2.77 3.773 6.543 7.554 9.811 10.317-20.128 1.01-37.486-7.294-51.33-22.394M69.504 57.528c20.128-10.317 47.052-4.531 66.936 14.09l-15.1 4.53c-11.825-13.837-30.95-18.115-44.038-11.066-10.569 5.533-15.597 15.344-12.582 24.91 2.266 6.537 9.567 13.838 23.152 20.129-4.279 4.53-7.547 9.061-10.317 14.594-11.824-5.036-27.682-13.087-30.95-28.186-3.267-14.84 6.292-30.192 22.9-39.002m103.671-4.278-13.845 4.278C143.987 37.4 126.123 34.376 114.04 41.172c-4.017 2.265-7.546 5.533-10.064 9.812-5.786-1.508-13.087-2.013-20.633-1.003 3.528-6.544 8.809-12.077 16.103-15.858 22.646-12.077 58.127-6.535 73.73 19.126m31.202 24.911c1.76 32.717-8.05 57.622-36.988 77.757-8.557-24.154-23.657-50.075-40.518-69.951l17.366-5.289c12.582 14.595 23.404 34.227 29.442 51.835 12.582-10.822 17.104-32.206 15.092-49.822z"/><path d="M75.288 160.449c-3.773-16.608 1.507-36.997 23.151-55.863-6.544-4.025-13.585-11.58-17.365-24.414-1.003-4.523-1.76-8.556-1.76-12.574 6.543-3.275 13.34-3.528 20.633-1.768 0 3.268.505 6.544 1.768 10.317 3.773 12.582 11.319 19.883 18.865 25.921-25.914 18.116-30.191 37.747-26.419 54.353 6.291 22.89 23.901 35.23 39.76 34.471 12.329-1.002 25.163-9.811 30.443-23.648l15.1-4.539c-9.811 23.152-25.913 39.01-54.352 39.01-24.154 0-45.292-22.149-49.823-41.267m38.75-10.569c-3.269-4.278-9.055-10.064-15.85-14.847 2.012-7.302 5.28-12.33 8.808-16.356 10.822 6.039 19.37 14.09 24.154 22.394 9.82 16.608 5.288 34.976-11.075 44.037a42.8 42.8 0 0 1-9.559-6.544c9.56-6.038 11.825-17.365 3.52-28.684M41.823 170.26l15.1-4.53c8.304 9.314 16.86 14.847 26.419 16.607 2.77 3.773 6.543 7.554 9.811 10.317-20.128 1.01-37.486-7.294-51.33-22.394M69.504 57.528c20.128-10.317 47.052-4.531 66.936 14.09l-15.1 4.53c-11.825-13.837-30.95-18.115-44.038-11.066-10.569 5.533-15.597 15.344-12.582 24.91 2.266 6.537 9.567 13.838 23.152 20.129-4.279 4.53-7.547 9.061-10.317 14.594-11.824-5.036-27.682-13.087-30.95-28.186-3.267-14.84 6.292-30.192 22.9-39.002m103.671-4.278-13.845 4.278C143.987 37.4 126.123 34.376 114.04 41.172c-4.017 2.265-7.546 5.533-10.064 9.812-5.786-1.508-13.087-2.013-20.633-1.003 3.528-6.544 8.809-12.077 16.103-15.858 22.646-12.077 58.127-6.535 73.73 19.126m31.202 24.911c1.76 32.717-8.05 57.622-36.988 77.757-8.557-24.154-23.657-50.075-40.518-69.951l17.366-5.289c12.582 14.595 23.404 34.227 29.442 51.835 12.582-10.822 17.104-32.206 15.092-49.822z"/><use xlink:href="#a" width="100%" height="100%" x="68.312" y="36.417" fill="#fff"/></svg>