<svg xmlns="http://www.w3.org/2000/svg" width="350" height="348.69" version="1.0"><path d="M73.294 345.774H280v79.882l-103.353 126-103.353-126z" style="fill:#fff;fill-opacity:1;fill-rule:evenodd;stroke:#000;stroke-width:1.57790887;stroke-linecap:butt;stroke-linejoin:miter;stroke-miterlimit:4;stroke-dasharray:none;stroke-opacity:1" transform="translate(-104.875 -536.588)scale(1.58438)"/><path d="M83.382 356.813h186.529v54.51H83.382z" style="fill:#000;fill-opacity:1;fill-rule:evenodd;stroke:none;stroke-width:1px;stroke-linecap:butt;stroke-linejoin:miter;marker:none;marker-start:none;marker-mid:none;marker-end:none;stroke-miterlimit:4;stroke-dasharray:none;stroke-dashoffset:0;stroke-opacity:1;visibility:visible;display:inline;overflow:visible" transform="translate(-104.875 -536.588)scale(1.58438)"/><path d="M83.794 421.127h76.588v93.882z" style="fill:#fe0000;fill-opacity:1;fill-rule:evenodd;stroke:none;stroke-width:1px;stroke-linecap:butt;stroke-linejoin:miter;stroke-opacity:1" transform="translate(-104.875 -536.588)scale(1.58438)"/><path d="M269.088 421.127H192.5v93.882z" style="fill:#000;fill-opacity:1;fill-rule:evenodd;stroke:none;stroke-width:1px;stroke-linecap:butt;stroke-linejoin:miter;stroke-opacity:1" transform="translate(-104.875 -536.588)scale(1.58438)"/><path d="M231.846 365.938c-5.808 0-6.918 3.277-6.918 5.35v24.93c-.187 4.363 3.362 6.563 6.638 6.563h18.647c4.019 0 8.184-2.215 8.184-7.125v-7h-8.75v2.469c.234 1.853-.648 3.125-2.055 3.063h-11.757c-1.715.11-3.343.122-2.907-2.188v-16.156c.346-1.128-.878-2.78 2.47-2.906h12.655c.757.417 1.901-.328 1.907 2.343l.125 2.906h8.156v-6.948c0-4.034-3.48-5.301-6.612-5.301zm-68.103 0h-25.596V402.5h8.895v-13.489h16.64c3.464 0 7.205-1.65 7.205-6.324v-10.625c0-2.95-2.263-6.074-7.144-6.125m-63.877 0c-3.437.27-4.868 1.864-4.813 4.656v12.095c0 2.17 1.969 4.218 7.07 4.218h15.493c.74 0 1.156.375 1.156 1.529v3.877c0 1.155-.413 2.03-1.383 2.03H94.897v7.844h27.324c4.051 0 5.582-2.077 5.582-4.935V384c0-4.945-6.043-4.656-8.275-4.656h-13.913c-1.251.126-2.45-1.037-2.343-2.27v-2.596c-.132-.955.783-1.673 2-1.666l22.531-.03v-6.844zm81.969 0v36.687h8.125v-13.687h18.343v-8h-18.187v-8.157h24.469v-6.844zm-34.793 8.03h13.636c1.01 0 2.157.075 2.157 2.041v3.35c0 2.018-1.056 2.093-2.125 2.093h-13.668z" style="fill:#fff;fill-rule:evenodd;stroke:none;stroke-width:1px;stroke-linecap:butt;stroke-linejoin:miter;stroke-opacity:1" transform="translate(-104.875 -536.588)scale(1.58438)"/></svg>