<svg xmlns="http://www.w3.org/2000/svg" width="258.667" height="258.667"><path fill="none" d="M.346.903h257.009V257.91H.346z"/><path d="M262.313 1128.09V1456c495.437-119.32 321.707 343.94 321.707 343.94 119.605 58.48 382.496 63.61 382.496 63.61s262.624-5.13 382.214-63.61c0 0-153.59-468.2 321.71-343.94v-327.91C1671.81 306.57 966.516 75.344 966.516 75.344S260.949 306.57 262.313 1128.09" style="fill:#fff;fill-opacity:1;fill-rule:evenodd;stroke:none" transform="matrix(.13333 0 0 -.13333 0 258.667)"/><path d="M262.313 1128.09V1456c495.437-119.32 321.707 343.94 321.707 343.94 119.605 58.48 382.496 63.61 382.496 63.61s262.624-5.13 382.214-63.61c0 0-153.59-468.2 321.71-343.94v-327.91C1671.81 306.57 966.516 75.344 966.516 75.344S260.949 306.57 262.313 1128.09z" style="fill:none;stroke:#231f20;stroke-width:29.9991;stroke-linecap:butt;stroke-linejoin:miter;stroke-miterlimit:2.6131;stroke-dasharray:none;stroke-opacity:1" transform="matrix(.13333 0 0 -.13333 0 258.667)"/><path d="M326.324 1114.12v262.13c441.117-69.24 346.684 366.62 346.684 366.62 108.722 53.17 293.5 48.84 293.5 48.84s184.512 4.33 293.242-48.84c0 0-94.43-435.86 346.68-366.62v-262.13c1.25-746.839-639.922-957.038-639.922-957.038S325.082 367.281 326.324 1114.12" style="fill:#231f20;fill-opacity:1;fill-rule:evenodd;stroke:none" transform="matrix(.13333 0 0 -.13333 0 258.667)"/><path d="M1626.25 1367.75c-291.94 3.55-327.75 149.02-327.75 149.02L364.449 708.824l177.703-278.812z" style="fill:#fff;fill-opacity:1;fill-rule:evenodd;stroke:none" transform="matrix(.13333 0 0 -.13333 0 258.667)"/><path d="M326.324 1114.12v262.13m0 0c441.117-69.24 346.684 366.62 346.684 366.62 108.722 53.17 293.5 48.84 293.5 48.84s184.512 4.33 293.242-48.84c0 0-94.43-435.86 346.68-366.62m0 0v-262.13m0 0c1.25-746.839-639.922-957.038-639.922-957.038S325.082 367.281 326.324 1114.12" style="fill:none;stroke:#231f20;stroke-width:10.0006;stroke-linecap:butt;stroke-linejoin:miter;stroke-miterlimit:2.6131;stroke-dasharray:none;stroke-opacity:1" transform="matrix(.13333 0 0 -.13333 0 258.667)"/><path d="m852.191 1713.19 10.559-38.94 59.637 42.04s18.644 14.83 19.265-21.65c0 0-19.879-11.12-19.879-24.1 0 0-2.488-30.92-.621-46.37v-49.46s-35.41-25.97-43.492-45.14h149.11s-14.91 27.21-44.735 44.52c0 0-27.957 35.86 11.18 50.08l9.325 63.06-18.642 7.41-55.293 50.7z" style="fill:#fff;fill-opacity:1;fill-rule:evenodd;stroke:none" transform="matrix(.13333 0 0 -.13333 0 258.667)"/><path d="M932.336 1641.48s9.937-6.81 10.562-14.84c0 0 8.075-7.42 9.317 1.24 0 0 4.969 16.08-8.695 25.34 0 0-16.157 3.1-11.184-11.74m26.715-51.32s-1.867-17.31 9.933-33.38c0 0 6.84-7.42 8.704 1.85 0 0-6.219 12.37-8.083 22.26 0 0-2.48 20.4-10.554 9.27m-34.793-42.66s3.726 30.92 10.558 35.86c0 0 9.946 11.13 8.704-12.98 0 0-4.344-22.88-11.184-26.59 0 0-4.973-4.32-8.078 3.71" style="fill:#231f20;fill-opacity:1;fill-rule:evenodd;stroke:none" transform="matrix(.13333 0 0 -.13333 0 258.667)"/><path d="M1037.74 1260.02H771.832c0 86.55-46.387 129.42-46.387 129.42h304.015z" style="fill:#fff;fill-opacity:1;fill-rule:evenodd;stroke:none" transform="matrix(.13333 0 0 -.13333 0 258.667)"/><path d="M1037.74 1260.02H771.832c0 86.55-46.387 129.42-46.387 129.42h304.015z" style="fill:none;stroke:#231f20;stroke-width:10.0006;stroke-linecap:butt;stroke-linejoin:miter;stroke-miterlimit:2.6131;stroke-dasharray:none;stroke-opacity:1" transform="matrix(.13333 0 0 -.13333 0 258.667)"/><path d="M787.574 1355.23H1042.3" style="fill:none;stroke:#231f20;stroke-width:20.0013;stroke-linecap:butt;stroke-linejoin:miter;stroke-miterlimit:2.6131;stroke-dasharray:100.006,60.0039;stroke-dashoffset:0;stroke-opacity:1" transform="matrix(.13333 0 0 -.13333 0 258.667)"/><path d="M835.617 868.059c142.481.414 230.293-69.243 230.293-69.243 197.57 226.274 70.82 473.574 70.82 473.574H649.645s126.746-247.3-70.825-473.574c0 0 114.317 68.836 256.797 69.243" style="fill:#fff;fill-opacity:1;fill-rule:evenodd;stroke:none" transform="matrix(.13333 0 0 -.13333 0 258.667)"/><path d="M835.617 868.059c142.481.414 230.293-69.243 230.293-69.243 197.57 226.274 70.82 473.574 70.82 473.574H649.645s126.746-247.3-70.825-473.574c0 0 114.317 68.836 256.797 69.243z" style="fill:none;stroke:#231f20;stroke-width:10.0006;stroke-linecap:butt;stroke-linejoin:miter;stroke-miterlimit:2.6131;stroke-dasharray:none;stroke-opacity:1" transform="matrix(.13333 0 0 -.13333 0 258.667)"/><path d="M708.047 1226.63h423.723" style="fill:none;stroke:#231f20;stroke-width:20.0013;stroke-linecap:butt;stroke-linejoin:miter;stroke-miterlimit:2.6131;stroke-dasharray:100.006,60.0039;stroke-dashoffset:0;stroke-opacity:1" transform="matrix(.13333 0 0 -.13333 0 258.667)"/><path d="M1104.43 1534.52H812.422s43.488-38.33 19.883-122.41c0 0 118.039 71.71 275.855 0 0 0 22.36 79.14-3.73 122.41" style="fill:#fff;fill-opacity:1;fill-rule:evenodd;stroke:none" transform="matrix(.13333 0 0 -.13333 0 258.667)"/><path d="M1104.43 1534.52H812.422s43.488-38.33 19.883-122.41c0 0 118.039 71.71 275.855 0 0 0 22.36 79.14-3.73 122.41z" style="fill:none;stroke:#231f20;stroke-width:10.0006;stroke-linecap:butt;stroke-linejoin:miter;stroke-miterlimit:2.6131;stroke-dasharray:none;stroke-opacity:1" transform="matrix(.13333 0 0 -.13333 0 258.667)"/><path d="M1260.99 1424.47H867.098s79.523-131.07-3.727-215.15c0 0 247.269 107.58 362.829-17.3 0 0 85.74 111.28 34.79 232.45" style="fill:#fff;fill-opacity:1;fill-rule:evenodd;stroke:none" transform="matrix(.13333 0 0 -.13333 0 258.667)"/><path d="M1260.99 1424.47H867.098s79.523-131.07-3.727-215.15c0 0 247.269 107.58 362.829-17.3 0 0 85.74 111.28 34.79 232.45z" style="fill:none;stroke:#231f20;stroke-width:10.0006;stroke-linecap:butt;stroke-linejoin:miter;stroke-miterlimit:2.6131;stroke-dasharray:none;stroke-opacity:1" transform="matrix(.13333 0 0 -.13333 0 258.667)"/><path d="M900.234 780.27c-115.972-.829-241.886-59.352-241.886-59.352 243.543 227.512 59.64 485.932 59.64 485.932h616.322s82.01-394.432-249.76-485.932c0 0-68.34 60.176-184.316 59.352" style="fill:#fff;fill-opacity:1;fill-rule:evenodd;stroke:none" transform="matrix(.13333 0 0 -.13333 0 258.667)"/><path d="M900.234 780.27c-115.972-.829-241.886-59.352-241.886-59.352 243.543 227.512 59.64 485.932 59.64 485.932h616.322s82.01-394.432-249.76-485.932c0 0-68.34 60.176-184.316 59.352z" style="fill:none;stroke:#231f20;stroke-width:10.0006;stroke-linecap:butt;stroke-linejoin:miter;stroke-miterlimit:2.6131;stroke-dasharray:none;stroke-opacity:1" transform="matrix(.13333 0 0 -.13333 0 258.667)"/><path d="M797.516 1157.39h523.124" style="fill:none;stroke:#231f20;stroke-width:29.9991;stroke-linecap:butt;stroke-linejoin:miter;stroke-miterlimit:2.6131;stroke-dasharray:149.996,89.9973;stroke-dashoffset:0;stroke-opacity:1" transform="matrix(.13333 0 0 -.13333 0 258.667)"/><path d="M926.742 1384.91h334.248" style="fill:none;stroke:#231f20;stroke-width:20.0013;stroke-linecap:butt;stroke-linejoin:miter;stroke-miterlimit:2.6131;stroke-dasharray:100.006,60.0039;stroke-dashoffset:0;stroke-opacity:1" transform="matrix(.13333 0 0 -.13333 0 258.667)"/><path d="M867.098 1503.61h234.842" style="fill:none;stroke:#231f20;stroke-width:10.0006;stroke-linecap:butt;stroke-linejoin:miter;stroke-miterlimit:2.6131;stroke-dasharray:50.003,30.0018;stroke-dashoffset:0;stroke-opacity:1" transform="matrix(.13333 0 0 -.13333 0 258.667)"/><path d="M1139.84 941.629s-39.14 29.051-78.9 29.051v-.121c0-39.563 29.2-78.516 29.2-78.516h-98.785s29.195 38.953 29.195 78.516v.121c-39.757 0-78.898-29.051-78.898-29.051v98.171s39.141-29.05 78.898-29.05v.12c0 39.56-29.195 78.52-29.195 78.52h98.785s-29.2-38.96-29.2-78.52v-.12c39.76 0 78.9 29.05 78.9 29.05z" style="fill:#ee2722;fill-opacity:1;fill-rule:evenodd;stroke:none" transform="matrix(.13333 0 0 -.13333 0 258.667)"/><path d="M454.559 1030.66v266.46m0 0s99.406 1.85 99.406-78.52c0 0 14.289-64.91-99.406-64.91" style="fill:none;stroke:#fff;stroke-width:29.9991;stroke-linecap:butt;stroke-linejoin:miter;stroke-miterlimit:2.6131;stroke-dasharray:none;stroke-opacity:1" transform="matrix(.13333 0 0 -.13333 0 258.667)"/><path d="M600.559 1214.87c-21.391 22.49-55.297 37.02-93.465 37.02-64.699 0-117.149-41.75-117.149-93.26s52.45-93.26 117.149-93.26c44.629 0 83.429 19.86 103.203 49.09" style="fill:none;stroke:#231f20;stroke-width:50.0003;stroke-linecap:butt;stroke-linejoin:miter;stroke-miterlimit:2.6131;stroke-dasharray:none;stroke-opacity:1" transform="matrix(.13333 0 0 -.13333 0 258.667)"/><path d="M600.559 1214.87c-21.391 22.49-55.297 37.02-93.465 37.02-64.699 0-117.149-41.75-117.149-93.26s52.45-93.26 117.149-93.26c44.988 0 84.054 20.19 103.687 49.8" style="fill:none;stroke:#fff;stroke-width:29.9991;stroke-linecap:butt;stroke-linejoin:miter;stroke-miterlimit:2.6131;stroke-dasharray:none;stroke-opacity:1" transform="matrix(.13333 0 0 -.13333 0 258.667)"/><path d="M603.672 1020.76s-40.383 0-40.383 48.84c0 0 4.375 35.11-20.359 60.11" style="fill:none;stroke:#231f20;stroke-width:50.0003;stroke-linecap:butt;stroke-linejoin:miter;stroke-miterlimit:2.6131;stroke-dasharray:none;stroke-opacity:1" transform="matrix(.13333 0 0 -.13333 0 258.667)"/><path d="M603.672 1020.76s-40.383 0-40.383 48.84c0 0 10.559 84.7-93.82 84.7" style="fill:none;stroke:#fff;stroke-width:29.9991;stroke-linecap:butt;stroke-linejoin:miter;stroke-miterlimit:2.6131;stroke-dasharray:none;stroke-opacity:1" transform="matrix(.13333 0 0 -.13333 0 258.667)"/><path d="M454.559 1179.03v98.3" style="fill:none;stroke:#231f20;stroke-width:50.0003;stroke-linecap:butt;stroke-linejoin:miter;stroke-miterlimit:2.6131;stroke-dasharray:none;stroke-opacity:1" transform="matrix(.13333 0 0 -.13333 0 258.667)"/><path d="M454.559 1179.03v98.3" style="fill:none;stroke:#fff;stroke-width:29.9991;stroke-linecap:butt;stroke-linejoin:miter;stroke-miterlimit:2.6131;stroke-dasharray:none;stroke-opacity:1" transform="matrix(.13333 0 0 -.13333 0 258.667)"/><path d="m468.848 1281.66-29.2-9.89c0 30.91-20.503 40.18-20.503 40.18h36.656zm19.882-275.74h-68.964s19.882 9.9 19.882 29.68h29.2c0-20.4 19.882-29.68 19.882-29.68" style="fill:#fff;fill-opacity:1;fill-rule:evenodd;stroke:none" transform="matrix(.13333 0 0 -.13333 0 258.667)"/><path d="M1057.62 426.453c-18.12 21.805-43.89 35.418-72.479 35.418-54.832 0-99.286-50.105-99.286-111.91 0-61.809 44.454-111.914 99.286-111.914 31.409 0 59.409 16.437 77.609 42.101" style="fill:none;stroke:#fff;stroke-width:29.9991;stroke-linecap:butt;stroke-linejoin:miter;stroke-miterlimit:2.6131;stroke-dasharray:none;stroke-opacity:1" transform="matrix(.13333 0 0 -.13333 0 258.667)"/><path d="M1060.94 238.688v-.622h-67.725" style="fill:none;stroke:#fff;stroke-width:29.9991;stroke-linecap:butt;stroke-linejoin:miter;stroke-miterlimit:2.6131;stroke-dasharray:none;stroke-opacity:1" transform="matrix(.13333 0 0 -.13333 0 258.667)"/><path d="m950.973 307.313 29.82-67.387 27.957 64.914m41.63 82.226 32.92 66.77" style="fill:none;stroke:#231f20;stroke-width:50.0003;stroke-linecap:butt;stroke-linejoin:miter;stroke-miterlimit:2.6131;stroke-dasharray:none;stroke-opacity:1" transform="matrix(.13333 0 0 -.13333 0 258.667)"/><path d="m868.965 470.527 111.828-230.601 113.697 236.168" style="fill:none;stroke:#fff;stroke-width:29.9991;stroke-linecap:butt;stroke-linejoin:miter;stroke-miterlimit:2.6131;stroke-dasharray:none;stroke-opacity:1" transform="matrix(.13333 0 0 -.13333 0 258.667)"/><path d="M1055.35 357.391h-44.11m0 0s.62-19.786 34.79-19.786m0 0 9.32 19.786" style="fill:none;stroke:#231f20;stroke-width:20.0013;stroke-linecap:butt;stroke-linejoin:miter;stroke-miterlimit:2.6131;stroke-dasharray:none;stroke-opacity:1" transform="matrix(.13333 0 0 -.13333 0 258.667)"/><path d="M1055.35 357.391h-44.11s.62-19.786 34.79-19.786z" style="fill:#fff;fill-opacity:1;fill-rule:evenodd;stroke:none" transform="matrix(.13333 0 0 -.13333 0 258.667)"/><path d="M1060.94 357.391V238.066" style="fill:none;stroke:#fff;stroke-width:29.9991;stroke-linecap:butt;stroke-linejoin:miter;stroke-miterlimit:2.6131;stroke-dasharray:none;stroke-opacity:1" transform="matrix(.13333 0 0 -.13333 0 258.667)"/><path d="M985.141 461.871c-54.832 0-99.286-50.105-99.286-111.91" style="fill:none;stroke:#231f20;stroke-width:50.0003;stroke-linecap:butt;stroke-linejoin:miter;stroke-miterlimit:2.6131;stroke-dasharray:none;stroke-opacity:1" transform="matrix(.13333 0 0 -.13333 0 258.667)"/><path d="M985.141 461.871c-54.832 0-99.286-50.105-99.286-111.91" style="fill:none;stroke:#fff;stroke-width:29.9991;stroke-linecap:butt;stroke-linejoin:miter;stroke-miterlimit:2.6131;stroke-dasharray:none;stroke-opacity:1" transform="matrix(.13333 0 0 -.13333 0 258.667)"/><path d="M1100.08 461.871c20.5 0 30.44 24.113 30.44 24.113h-68.96s7.46-24.113 22.99-24.113zm-239.197 0c-20.5 0-30.442 24.113-30.442 24.113h68.961s-7.449-24.113-22.984-24.113z" style="fill:#fff;fill-opacity:1;fill-rule:evenodd;stroke:none" transform="matrix(.13333 0 0 -.13333 0 258.667)"/><path d="M738.492 709.785s-18.015-82.84 211.238-82.84c0 0 94.44-6.183 139.79 45.75l88.22 94.594s-43.49 90.879-95.05 90.879c0 0-129.03 4.535-344.198-148.383" style="fill:#231f20;fill-opacity:1;fill-rule:evenodd;stroke:none" transform="matrix(.13333 0 0 -.13333 0 258.667)"/><path d="M738.492 709.785s-18.015-82.84 211.238-82.84c0 0 94.44-6.183 139.79 45.75l88.22 94.594s-43.49 90.879-95.05 90.879c0 0-129.03 4.535-344.198-148.383z" style="fill:none;stroke:#231f20;stroke-width:10.0006;stroke-linecap:butt;stroke-linejoin:miter;stroke-miterlimit:2.6131;stroke-dasharray:none;stroke-opacity:1" transform="matrix(.13333 0 0 -.13333 0 258.667)"/><path d="M1011.24 631.066s21.53 133.539 44.73 168.161c0 0-37.28 52.753 23.19 57.703 0 0 25.68 3.297 33.14-25.555 0 0 2.49-28.852-23.19-39.566 0 0-25.68-21.434-44.74-150.852 0 0-18.22-7.418-33.13-9.891" style="fill:#f3973a;fill-opacity:1;fill-rule:evenodd;stroke:none" transform="matrix(.13333 0 0 -.13333 0 258.667)"/><path d="M1011.24 631.066s21.53 133.539 44.73 168.161c0 0-37.28 52.753 23.19 57.703 0 0 25.68 3.297 33.14-25.555 0 0 2.49-28.852-23.19-39.566 0 0-25.68-21.434-44.74-150.852 0 0-18.22-7.418-33.13-9.891z" style="fill:none;stroke:#231f20;stroke-width:10.0006;stroke-linecap:butt;stroke-linejoin:miter;stroke-miterlimit:2.6131;stroke-dasharray:none;stroke-opacity:1" transform="matrix(.13333 0 0 -.13333 0 258.667)"/><path d="M867.098 775.324s82.011 40.391 133.362 55.231c0 0 24.03 8.242 30.66 0 0 0 14.91-18.961-15.74-30.504 0 0-76.204-9.887-240.235-105.516 0 0-14.082-9.062-19.875.832 0 0-3.317 7.414 10.765 18.129 0 0 62.957 43.688 101.063 61.828" style="fill:#f3973a;fill-opacity:1;fill-rule:evenodd;stroke:none" transform="matrix(.13333 0 0 -.13333 0 258.667)"/><path d="M960.707 772.027s37.277 14.012 49.703 14.836c0 0 16.57-.824 16.57-14.015 0 0 4.14-18.133-23.2-26.379 0 0-67.925-10.715-187.217-75.012 0 0-21.532-16.488-34.79-3.297 0 0-6.628 9.895 9.938 21.438 0 0 99.41 57.699 168.996 82.429m-22.371-56.879s48.051 17.309 69.584 18.137c0 0 11.6-.828 9.94-14.015 0 0 4.14-21.434-19.051-24.735 0 0-63.782-8.238-124.258-42.859 0 0-15.735-9.895-32.305-8.246 0 0-9.941 2.476-18.226 5.773 0 0-16.563 3.297 25.683 24.731 0 0 57.16 32.144 88.633 41.214m1.66-78.312s-38.105 0-53.016 1.648c0 0-9.941 2.473 7.454 11.539 0 0 44.742 18.961 86.152 28.852 0 0 25.684 7.422 25.684-12.363 0 0 4.14-27.203-29.825-28.852zm202.124 165.687s26.51-29.675 14.09-43.687c0 0-14.09-18.133-32.32 2.473 0 0-22.36 18.961-12.42 36.269 0 0 12.42 33.797 30.65 4.945m-38.93-33.796s16.56-16.489 21.54-27.196c0 0 9.11-17.316-10.77-23.91 0 0-24.03 9.067-35.62 31.324 0 0 .82 30.496 24.85 19.782m-19.89-44.512s25.69-16.488 10.77-32.149c0 0-10.77-11.539-19.88 0 0 0-13.25 7.418-7.46 24.727 0 0 4.98 16.492 16.57 7.422m-20.71-37.094s19.89-10.719 6.63-21.433c0 0-16.57-19.782-14.91 0 0 0-1.66 18.136 8.28 21.433" style="fill:#f3973a;fill-opacity:1;fill-rule:evenodd;stroke:none" transform="matrix(.13333 0 0 -.13333 0 258.667)"/><path d="M887.809 562.648s79.523-2.472 95.261 12.364c0 0-55.5-68.414-95.261-12.364m208.751 61.004s57.98-13.199 96.92-9.074c0 0-67.93-47.808-96.92 9.074m172.3-8.25s35.62-.824 62.14 9.891c0 0-24.03-41.215-62.14-9.891m-66.89-64.504s35.21 4.125 50.12 1.649c0 0-22.78 28.027-50.12-1.649m-166.71 62.266s-26.51-8.246-41.424-5.773c0 0 14.094-23.903 41.424 5.773m-9.11-44.746s28.99-5.77 67.1-4.117c0 0-18.23-36.274-67.1 4.117m-197.982 36.273s50.527-1.652 78.695 4.122c0 0-27.34-43.692-78.695-4.122" style="fill:#fff;fill-opacity:1;fill-rule:evenodd;stroke:none" transform="matrix(.13333 0 0 -.13333 0 258.667)"/><path d="M678.227 607.984s40.586 1.645 59.64 1.645c19.059 0 35.207-3.707 45.149-11.949 0 0-10.356 16.898-35.203 25.14 0 0-29 10.719-57.165 4.95 0 0-25.679-4.95-57.98 15.66 0 0 19.879-33.801 45.559-35.446m20.707-29.675s-22.371 5.773-48.875.824c-18.723-3.488-55.504.824-65.446 9.066 0 0 1.664-23.91 34.797-28.855 0 0 23.192.004 55.504 1.656 0 0 31.481 3.301 62.129-13.191 0 0-27.336 28.027-38.109 30.5" style="fill:#221e1e;fill-opacity:1;fill-rule:evenodd;stroke:none" transform="matrix(.13333 0 0 -.13333 0 258.667)"/></svg>