<svg xmlns="http://www.w3.org/2000/svg" xmlns:xlink="http://www.w3.org/1999/xlink" viewBox="103.15 51.92 391.37 448.92"><defs><linearGradient id="a"><stop offset="0%" stop-color="#00600b"/><stop offset="100%" stop-color="#23b431"/></linearGradient><linearGradient xlink:href="#a" id="b" x1="0" x2="0" y1="0" y2="1" gradientTransform="rotate(180 .5 .5)" gradientUnits="objectBoundingBox"/></defs><path d="M298.141 136.709c-107.755.374-194.987 87.841-194.987 195.684 0 71.692 38.562 134.364 96.99 168.448v-39.345h.112c28.057 20.158 62.202 32.095 98.582 32.095 37.179 0 71.578-11.886 99.622-32.06v39.31c57.503-34.084 96.062-96.756 96.062-168.448 0-107.843-87.235-195.31-194.991-195.684z" style="fill:url(#b)"/><path d="M265.962 338.632c-.796 0-1.793 1.14-3.785.693-1.993-.445-1.396-2.28-1.396-3.517 0-1.241-1.243-2.033-.148-4.262 1.096-2.23 2.606-.428 3.585.544 1.17 1.165 1.496.15 2.54.791.641.4.372.907.598 1.904.142.632 1.07 1.901 1.07 2.435 0 1.387-1.668 1.412-2.464 1.412m-10.957 12.422h-32.673c-1.594 0 .797-5.682.797-7.131 0-1.458 1.66-5.093 3.719-7.138 2.059-2.05.93-5.685 1.593-8.195.662-2.513 1.794-4.688 2.92-5.816 1.132-1.12 1.53-7.601 3.456-11.757 1.925-4.16 6.774-4.496 6.774-1.455 0 3.035 5.71 14.271 6.64 17.175.93 2.913 0 9.256 1.196 12.557 1.193 3.3 2.986 4.292 5.578 6.87 2.589 2.572 0 4.89 0 4.89m-36.559-13.414c-2.09 0-2.09-2.478-2.09-2.973 0-.496.7-2.23 2.09-2.23 1.396 0 1.795-2.23 2.789-2.23 1.197 0 .114 1.871 1.197 2.674.821.615.547 2.332-.698 2.48-1.245.15-1.195 2.279-3.288 2.279m77.066 35.875c-2.52 0-8.901-17.175-12.084-20.349-3.189-3.171-1.994-6.34-1.994-7.658 0-1.326 3.322-2.516 2.523-6.481-.797-3.964-5.842-2.636-7.967-6.74-2.125-4.093-6.377-6.737-8.832-10.77-2.458-4.027-2.458-11.032-4.45-14.733-1.994-3.697-5.313-8.056-5.313-12.023 0-3.965 1.196-5.687 3.587-7.005 2.39-1.32 4.317-.792 4.317-3.237s-3.788-4.296-6.178-4.296-3.055 1.851-5.445 1.851c-2.389 0-1.993-3.17-8.632-3.17-3.321 0-8.366 5.948-10.891 5.948-2.524 0-7.837-1.453-8.502.792-.662 2.246 3.454.793 3.454 3.965 0 3.17-2.125 7.791-4.647 12.419-2.523 4.627-.996 12.222-2.523 13.746-1.53 1.518-3.454 3.432-4.119 5.68-.665 2.25-.863 6.276-2.126 7.533-1.262 1.251-3.318 2.25-3.85 4.49-.532 2.249 1.063 4.362.265 7.136-.797 2.776-.928 5.817-1.991 6.876-1.064 1.05-3.454 3.3-3.454 4.887s-.134 6.605-.93 8.848c-.796 2.25-4.25 7.405-6.374 10.706-2.126 3.308-3.852 4.893-5.314 4.893-1.461 0-5.975 4.757-1.195 4.757h26.298c2.522 0 5.712-4.894 2.258-4.894s-6.509-1.845-7.836-4.223c-1.329-2.379 1.726-3.964 1.726-5.153 0-1.192.397-5.953 2.39-6.611h39.58c2.921 0 5.31 1.587 5.843 3.568.53 1.982.53 4.362.53 6.473 0 2.12-1.861 1.853-3.318 3.308-1.46 1.45-7.042 5.81 0 5.81h20.188c1.46 0 3.452-2.113 5.976-2.113s3.584 1.984 7.172 1.984 7.833 0 8.63-4.093c.48-2.466-4.251-2.12-6.772-2.12" style="fill:#fff;fill-rule:evenodd"/><path d="M329.105 380.195c-.564-.602-1.022-1.345-1.224-2.306a4.7 4.7 0 0 1-.094-.916v-.004c-.25-1.266-.195-2.784.416-5.035.573-2.108-2.748-3.031-2.748-4.22s-1.528-5.619-4.65-8.722c-3.118-3.109-1.762-3.409-3.118-4.758-1.36-1.357-6.975-1.32-3.39 2.25 3.588 3.566.926 4.354 2.655 6.075 1.729 1.717 2.125 3.829 2.125 6.344 0 2.51 1.199 2.907 1.199 6.87 0 4.498-1.33 6.876-2.391 9.253-1.061 2.381-2.527 6.74-4.382 6.74-1.86 0-2.259 2.775-7.04 2.775s-7.174-1.06-9.83-5.023c-2.121-3.164-7.143-5.01-9.109-8.642-.124-.04-.238-.081-.32-.081-.417 0-1.231.442-1.881.788l-4.097 1.326h-11.817c-.356.36-.722.723-1.063 1.06-1.262 1.255-2.79 2.376-2.79 4.49 0 2.119 2.656 2.515 3.453 4.76s9.297 13.347 13.015 14.405c3.721 1.054 1.991 2.905 12.219 2.905s12.483-3.57 17.134-3.57 7.17-.127 7.7 1.853c.536 1.985 2.925 2.9 2.925 4.355 0 1.457.793 5.025 3.453 2.384 2.656-2.645 2.92-5.022 4.78-6.873 1.863-1.854 1-18.816 1.863-22.333.863-3.522-1.776-3.845-2.993-6.15h-.003zM327.2 263.932c0-3.172-2.26-5.813-3.189-8.192s.863-10.113-.399-11.367c-1.261-1.254-3.322-2.907-3.322-4.489 0-1.585-4.114-5.024-5.309 1.45-1.196 6.477.66 4.629-1.86 5.684-2.523 1.055-3.19 4.095-5.445 4.095s-4.519-1.053-7.706-.13-6.643 2.244-9.96 2.244c-3.319 0-9.96 2.117-12.749 4.892-2.79 2.775-2.792 6.338-4.916 8.455s-2.39 3.433-3.053 4.097c-.665.662-2.257 1.323-2.257 3.963 0 .922-.056 2.836-.388 5.063 1.376 1.335 2.313 3.028 2.313 5.048 0 4.536-3.602 5.708-4.957 6.148l-1.408.554c-.962.53-1.535.849-1.535 3.54 0 1.955 1.705 4.81 3.206 7.331l1.63 2.818c1.205 2.237 1.778 5.048 2.327 7.768.526 2.562 1.067 5.22 2.017 6.781.923 1.513 2.27 2.894 3.699 4.355 1.773 1.814 3.583 3.705 4.952 6.133 2.97-.57 5.837-1.784 6.471-3.21 1.063-2.378 2.656-3.964 2.656-5.679s-2.925-4.758-3.851-7.532c-.93-2.776-1.727-11.763-1.727-20.086 0-8.326 1.993-17.448 3.055-19.956s8.899-13.742 16.337-13.742 6.376 4.887 9.031 6.208c2.656 1.325 6.506 4.5 6.506 9.783 0 5.284-2.924 13.607-7.837 15.326-4.912 1.72-6.237 5.42-.13 6.081 6.11.66 8.628-4.231 12.482-7.005 3.853-2.776 2.328-6.012 3.722-7.4 1.393-1.389 1.593-4.232 1.593-6.476 0-2.246-1.858-3.964-1.858-5.946 0-1.983 1.858-3.436 1.858-6.607M298.053 488.125c-37.481 0-72.838-12.215-102.244-35.323l-.78-.615 2.357-2.937.75.59c28.737 22.583 63.288 34.52 99.917 34.52 36.916 0 71.678-12.104 100.53-34.999l2.34 2.949c-29.523 23.43-65.097 35.815-102.87 35.815" style="fill:#fff;fill-rule:evenodd"/><path d="M298.837 147c-101.959 0-184.905 82.95-184.905 184.906 0 58.36 27.805 113.55 74.567 148.386l.035-27.354 23.427-10.176c-33.08-27.523-51.986-67.747-51.986-110.856 0-79.257 62.625-141.21 142.36-140.476 65.03.614 137.486 58.242 137.486 139.95 0 44.162-19.907 83.644-56.144 111.548l27.07 9.932v26.25c46.44-35.156 72.994-88.591 72.994-147.204C483.741 229.949 400.795 147 298.836 147M192.255 487.646l-2.972-2.123c-49.54-35.392-79.118-92.818-79.118-153.617 0-104.034 84.639-188.673 188.672-188.673 104.034 0 188.67 84.639 188.67 188.673 0 30.734-7.09 59.98-21.074 86.918-13.366 25.75-32.891 48.416-56.465 65.55l-2.989 2.174v-31.059l-31.132-11.42 2.82-2.078c37.008-27.28 57.39-66.56 57.39-110.612 0-79.51-70.492-135.585-133.756-136.184-77.586-.724-138.56 59.577-138.56 136.711 0 42.993 19.31 83.042 52.98 109.879l2.45 1.95-26.874 11.675z" style="fill:#fff;fill-rule:evenodd"/><path d="M275.845 443.502h-2.427v-15.464q-.876.835-2.3 1.671-1.422.836-2.553 1.254v-2.345q2.034-.958 3.559-2.32 1.523-1.362 2.157-2.643h1.564zM292.362 430.208q0-2.09-1.113-3.316-1.113-1.228-2.676-1.227-1.619 0-2.818 1.321-1.2 1.322-1.2 3.425 0 1.886 1.139 3.068 1.14 1.18 2.811 1.178 1.686 0 2.77-1.178 1.087-1.18 1.087-3.27m-9.938 8.725 2.333-.218q.296 1.646 1.133 2.387.836.742 2.144.742 1.118.001 1.962-.512a4.2 4.2 0 0 0 1.382-1.37q.54-.854.903-2.312.363-1.453.364-2.965 0-.162-.014-.485a5.5 5.5 0 0 1-1.988 1.879q-1.261.722-2.731.722-2.454 0-4.152-1.779-1.7-1.78-1.7-4.691 0-3.009 1.774-4.842c1.18-1.222 2.663-1.834 4.441-1.834a6.35 6.35 0 0 1 3.528 1.038q1.595 1.04 2.426 2.96.83 1.922.83 5.561-.001 3.79-.823 6.034-.822 2.247-2.447 3.418t-3.81 1.173q-2.318 0-3.788-1.287-1.47-1.288-1.767-3.619M297.58 426.325v-2.333h12.795v1.888q-1.887 2.01-3.742 5.338a32.6 32.6 0 0 0-2.865 6.851q-.727 2.48-.93 5.433h-2.494q.04-2.332.916-5.636a29.7 29.7 0 0 1 2.515-6.37q1.639-3.067 3.486-5.171zM312.788 438.285l2.427-.324q.418 2.063 1.422 2.972 1.006.911 2.448.91 1.712.001 2.892-1.187 1.18-1.186 1.18-2.937 0-1.671-1.092-2.76-1.093-1.082-2.778-1.083-.688 0-1.712.27l.27-2.132q.24.027.39.026 1.55 0 2.79-.808 1.242-.809 1.242-2.493 0-1.336-.904-2.211-.904-.877-2.332-.877-1.416 0-2.36.89-.943.889-1.213 2.67l-2.427-.432q.445-2.44 2.022-3.782 1.577-1.341 3.924-1.342 1.618-.001 2.98.694t2.083 1.896q.72 1.199.72 2.548c0 .855-.228 1.63-.686 2.333q-.69 1.05-2.037 1.671 1.754.404 2.724 1.679.97 1.273.97 3.188 0 2.589-1.886 4.39-1.888 1.8-4.774 1.799-2.602 0-4.322-1.549-1.72-1.552-1.961-4.02M184.755 436.553l-6.288-7.505 3.1-4.817-3.87-4.617-14.334 24.206 4.104 4.902 26.417-9.788-3.75-4.477zm-14.689 5.946-.049-.059 5.932-9.258 4.345 5.182zM168.245 419.48c1.241-.797 3.264-2.887.753-7.027-1.359-2.248-3.411-4.416-5.813-2.959-1.768 1.068-1.208 3.066-.321 5.814l.906 2.779c1.368 4.177 2.692 8.22-2.301 11.242-2.527 1.533-7.806 2.873-12.27-4.484-4.215-6.956-.797-11.58 1.967-13.29l2.757 4.546c-.932.74-3.106 2.573-.594 6.715 1.09 1.8 3.058 3.55 5.111 2.303 1.771-1.072 1.266-2.76.915-3.838l-1.994-6.356c-1.118-3.558-1.578-7.166 2.499-9.638 6.824-4.138 11.64 2.454 12.845 4.437 5.022 8.286 1.111 12.597-1.702 14.303zM156.917 399.066c1.351-.608 3.653-2.376 1.776-6.84-1.015-2.422-2.727-4.867-5.316-3.782-1.908.807-1.645 2.86-1.17 5.702l.488 2.882c.741 4.345 1.459 8.528-3.923 10.79-2.727 1.15-8.146 1.699-11.48-6.236-3.151-7.499.91-11.568 3.895-12.864l2.063 4.907c-1.036.593-3.45 2.093-1.578 6.554.816 1.939 2.507 3.956 4.72 3.025 1.906-.796 1.657-2.532 1.467-3.657l-1.039-6.58c-.586-3.68-.513-7.318 3.883-9.167 7.359-3.09 11.155 4.127 12.058 6.27 3.75 8.932-.751 12.625-3.782 13.902zM144.87 383.39c12.105-2.916 11.412-12.254 10.59-15.667-.826-3.409-4.465-12.04-16.571-9.115-12.106 2.92-11.413 12.258-10.59 15.668.826 3.411 4.464 12.042 16.57 9.114m-1.3-5.384c-7.222 1.74-10.006-1.92-10.708-4.826-.703-2.914.107-7.444 7.327-9.185 7.22-1.744 10.006 1.919 10.707 4.827.703 2.913-.104 7.44-7.326 9.184M132.704 338.024c-1.555.553-4.482 1.615-4.16 6.182.185 2.658 2.23 6.44 9.711 5.913 4.756-.33 8.902-2.515 8.573-7.2-.213-3.058-2.098-5.067-5.388-5.508l-.386-5.524c5.827.702 10.107 4.178 10.574 10.81.494 7.04-3.908 12.424-13.049 13.07-9.253.644-14.346-4.37-14.824-11.187-.556-7.921 4.673-11.511 8.561-12.08zM124.072 328.444l.214-5.543 26.51 1.006-.208 5.54zM146.059 314.53l1.421-9.687 5.66-.888.875-5.958-27.61 5.397-.93 6.322 24.88 13.214.847-5.772zm-14.208-7.011.01-.077 10.861-1.73-.982 6.693zM141.973 277.006c-1.648-.045-4.76-.107-6.1 4.272-.781 2.544-.233 6.809 6.94 9.009 4.556 1.395 9.208.849 10.582-3.638.9-2.932-.133-5.49-3.049-7.08l1.627-5.297c5.188 2.747 7.93 7.528 5.984 13.893-2.067 6.747-8.108 10.188-16.873 7.503-8.867-2.714-11.821-9.222-9.818-15.76 2.328-7.597 8.499-9.07 12.331-8.204zM137.394 246.947c.497.411 1.097 1.118.559 2.214-.23.463-.592.86-1.579 1.773-.984.92-1.429 1.316-1.804 2.08-.736 1.49-.497 2.76.053 3.817.57 1.02 1.449 1.745 2.047 2.2l1.046-2.12c-.332-.245-1.233-1.098-.66-2.261.276-.562.97-1.127 1.825-2.025.492-.497 1.414-1.53 1.774-2.258 1.356-2.75-1.287-4.917-2.198-5.572zm21.571 21.017 4.33-8.782 5.657.894 2.66-5.403-27.93-3.348-2.825 5.734 19.613 20.22 2.581-5.24zm-11.368-11.039.032-.067 10.87 1.689-2.99 6.064zM160.738 247.08c10.106 7.28 16.736.667 18.788-2.181 2.05-2.851 6.218-11.232-3.887-18.51s-16.734-.664-18.786 2.184c-2.05 2.85-6.22 11.229 3.885 18.507m3.24-4.494c-6.027-4.342-5.064-8.843-3.317-11.273 1.749-2.426 5.71-4.764 11.738-.424 6.03 4.34 5.066 8.837 3.318 11.267-1.751 2.428-5.712 4.768-11.739.43M192.72 202.856c-1.385-.894-4.01-2.567-7.434.476-1.991 1.768-3.74 5.696 1.242 11.301 3.167 3.565 7.423 5.518 10.931 2.401 2.294-2.038 2.742-4.758 1.078-7.631l4.143-3.682c3.002 5.047 2.861 10.559-2.112 14.978-5.277 4.689-12.228 4.488-18.316-2.361-6.16-6.938-5.298-14.031-.184-18.573 5.939-5.277 11.974-3.322 14.797-.593zM209.101 180.774l4.672-2.979 14.266 22.37-4.671 2.982-6.398-10.034-8.727 5.564 6.4 10.03-4.672 2.983-14.268-22.37 4.673-2.981 5.404 8.475 8.728-5.563zM233.58 191.576l8.99-3.886 3.729 4.346 5.53-2.387-19.106-20.65-5.871 2.536 1.84 28.107 5.363-2.313zm-1.501-15.777.064-.029 7.185 8.33-6.21 2.681zM255.847 178.88l6.152-1.595c6.904-1.788 6.67-7.99 6.069-10.315-1.305-5.043-5.138-7.448-10.108-6.158l-11.734 3.04 6.657 25.683 5.364-1.39zm-1.15-4.436-1.958-7.548 4.258-1.103c3.326-.861 4.99-.185 5.64 2.317.296 1.146 1.038 4.008-2.97 5.045zM293.924 177.406l.497 4.665-20.028 2.132-2.805-26.383 19.4-2.065.497 4.668-14 1.488.59 5.55 12.864-1.37.493 4.668-12.86 1.368.727 6.834zM314.493 165c-.365-1.61-1.073-4.639-5.647-4.86-2.66-.126-6.657 1.459-7.016 8.95-.228 4.762 1.452 9.134 6.136 9.36 3.065.148 5.29-1.486 6.107-4.703l5.54.267c-1.386 5.703-5.341 9.547-11.986 9.228-7.05-.336-11.88-5.341-11.44-14.496.446-9.265 6.025-13.733 12.852-13.405 7.938.38 10.886 5.997 10.994 9.923zM322.483 170.12c-2.651 12.17 6.051 15.618 9.483 16.365 3.427.748 12.776 1.235 15.428-10.933 2.653-12.17-6.052-15.616-9.482-16.363-3.43-.749-12.78-1.237-15.429 10.931m5.412 1.18c1.584-7.256 6.097-8.165 9.019-7.529 2.925.639 6.649 3.342 5.065 10.6-1.581 7.257-6.09 8.166-9.015 7.527-2.926-.637-6.648-3.34-5.069-10.597M366.75 192.332l-1.72 4.365-18.736-7.389 9.732-24.682 18.154 7.16-1.719 4.364-13.1-5.164-2.048 5.19 12.032 4.745-1.72 4.365-12.036-4.744-2.52 6.395zM366.619 197.458l13.399-22.9 5.037 2.949-.239 21.266.064.038 9.333-15.948 4.464 2.613-13.402 22.9-4.783-2.8.208-21.798-.063-.038-9.554 16.332zM395.754 206.216c-.905 1.171-2.1 3.819 1.655 6.87 2.04 1.656 4.701 3.005 6.473.824 1.303-1.604.104-3.294-1.66-5.58l-1.788-2.31c-2.7-3.476-5.307-6.832-1.624-11.365 1.861-2.294 6.38-5.339 13.063.089 6.31 5.124 4.65 10.63 2.631 13.177l-4.13-3.351c.628-1.012 2.052-3.472-1.705-6.523-1.63-1.329-4.072-2.31-5.586-.445-1.308 1.606-.265 3.02.43 3.923l4.02 5.309c2.254 2.97 3.902 6.214.9 9.915-5.036 6.196-11.787 1.616-13.597.15-7.514-6.103-5.289-11.482-3.214-14.036zM421.695 235.885l-3.453 3.176-13.625-14.828 19.535-17.956 13.198 14.369-3.454 3.174-9.53-10.366-4.1 3.779 8.749 9.519-3.455 3.179-8.75-9.525-5.062 4.65zM423.694 247.46l5.86 9.885c4.467 7.532 12.675 5.285 17.57 2.38 4.327-2.56 9.926-8.035 5.366-15.724l-5.974-10.077zm21.65-6.524 2.714 4.575c1.207 2.034 2.572 5.564-4.167 9.563-3.75 2.222-8.433 3.237-10.734-.64l-2.752-4.639zM447.598 285.334l-4.353 1.745-7.505-18.687 24.625-9.886 7.267 18.109-4.356 1.75-5.245-13.07-5.175 2.08 4.812 12.006-4.353 1.745-4.817-12.003-6.375 2.56zM463.249 309.521l-4.612.865-2.139-11.481-10.969 2.044-1.018-5.453 26.085-4.857 3.455 18.564-4.611.86-2.444-13.116-5.886 1.095zM458.179 336.182c-6.98.261-10.127-3.838-10.38-10.52-.089-2.438.361-6.08 2.896-8.538 1.57-1.501 3.692-2.134 6.352-2.314l17.573-.658.214 5.655-17.207.644c-3.695.14-5.24 2.338-5.143 4.925.143 3.806 2.047 5.288 5.259 5.169l17.471-.66.208 5.653zM469.14 353.069l-21.712-2.352.599-5.513 21.712 2.36.866-7.975 4.662.507-2.326 21.456-4.667-.506zM445.895 380.211l-4.548-1.154 4.972-19.512 25.71 6.54-4.815 18.911-4.546-1.16 3.475-13.642-5.41-1.374-3.189 12.532-4.547-1.156 3.188-12.54-6.66-1.691zM458.785 394.482l-2.5 5.851c-.985 2.304-2.203 3.474-4.208 2.62-1.939-.833-2.04-2.762-1.179-4.764l2.551-5.98zm-18.094-13.518-4.41 10.332c-2.137 4.996-1.855 6.685-1.092 8.66.705 1.828 2.2 3.431 4.13 4.255 2.414 1.028 5.128 1.263 7.525-1.244.075 1.237.217 3.624 3.718 5.12 2.517 1.082 6.908 1.146 9.463-4.833l5.067-11.863zm8.647 9.479-2.772 6.498c-.782 1.832-2.382 3.321-4.527 2.4-2.477-1.057-2.955-2.946-1.896-5.425l2.67-6.253zM442.872 409.236c-10.484-6.724-16.75.23-18.643 3.189-1.896 2.958-5.607 11.549 4.871 18.273 10.489 6.721 16.75-.237 18.643-3.191 1.9-2.95 5.61-11.55-4.871-18.27m-2.994 4.664c6.248 4.012 5.531 8.551 3.915 11.076-1.613 2.517-5.444 5.064-11.698 1.053-6.251-4.011-5.532-8.553-3.916-11.07 1.617-2.523 5.447-5.07 11.7-1.06M416.457 432.207l-8.724 9.897-3.603-3.178 12.387-14.052 19.904 17.544-3.669 4.162zM232.284 454.032c.253-.988.723-2.858-1.737-4.278-1.427-.82-4.078-1.085-6.399 2.947-1.475 2.553-1.789 5.438.73 6.891 1.649.95 3.331.683 4.696-.863l2.975 1.718c-2.375 2.755-5.646 3.752-9.215 1.687-3.79-2.178-5.032-6.302-2.198-11.222 2.87-4.984 7.209-5.862 10.878-3.749 4.265 2.46 4.298 6.391 3.243 8.583l-2.973-1.711zM248.369 455.632l3.152 1.355-6.505 15.098-3.15-1.36 2.916-6.772-5.886-2.539-2.918 6.773-3.154-1.358 6.504-15.094 3.153 1.353-2.463 5.726 5.886 2.536zM253.372 471.3l5.814 1.734.04 3.55 3.575 1.065-.848-17.406-3.795-1.136-10.317 14.077 3.465 1.036zm5.568-8.083.046.01.091 6.809-4.014-1.194zM270.268 473.037l3.874.695c4.35.785 5.824-2.764 6.09-4.228.571-3.18-.961-5.528-4.092-6.088l-7.39-1.328-2.912 16.171 3.38.61zm.503-2.79.856-4.76 2.682.485c2.093.377 2.857 1.187 2.571 2.766-.128.718-.454 2.522-2.978 2.07zM294.38 478.868l-.204 2.901-12.445-.884 1.167-16.395 12.055.856-.207 2.903-8.697-.62-.248 3.449 7.992.567-.203 2.898-7.996-.569-.298 4.247zM307.939 470.374c-.312-.976-.91-2.804-3.749-2.694-1.643.06-4.026 1.258-3.845 5.9.115 2.952 1.384 5.559 4.289 5.44 1.9-.068 3.184-1.197 3.518-3.22l3.431-.138c-.549 3.59-2.784 6.179-6.902 6.337-4.368.17-7.616-2.658-7.838-8.33-.226-5.74 2.98-8.8 7.21-8.961 4.918-.2 7.038 3.109 7.317 5.53zM313.339 472.924c1.219 7.618 7.018 7.637 9.17 7.292 2.143-.343 7.648-2.18 6.423-9.792-1.22-7.62-7.018-7.64-9.169-7.294-2.143.345-7.647 2.179-6.424 9.794m3.388-.546c-.728-4.542 1.667-6.087 3.5-6.38 1.828-.295 4.586.421 5.315 4.97.728 4.542-1.664 6.086-3.498 6.38-1.83.294-4.587-.428-5.317-4.97M352.754 466.189c.38.835 1.49 2.255 4.242 1.067 1.496-.645 3.003-1.716 2.317-3.315-.509-1.175-1.777-1.002-3.54-.696l-1.784.318c-2.682.488-5.274.954-6.705-2.367-.72-1.687-1.094-5.041 3.808-7.147 4.625-1.994 7.172.504 7.987 2.341l-3.03 1.308c-.373-.64-1.313-2.132-4.069-.942-1.198.517-2.435 1.57-1.85 2.937.51 1.177 1.587 1.016 2.277.888l4.072-.676c2.277-.383 4.53-.358 5.7 2.357 1.954 4.543-2.503 6.93-3.826 7.504-5.51 2.368-7.821-.402-8.63-2.272zM370.888 450.44c-.728-.716-2.103-2.07-4.57-.665-1.432.817-2.995 2.968-.696 7.014 1.463 2.561 3.79 4.29 6.318 2.853 1.648-.944 2.271-2.536 1.632-4.49l2.984-1.697c1.168 3.442.38 6.77-3.2 8.808-3.803 2.164-7.99 1.149-10.799-3.784-2.844-4.992-1.413-9.183 2.266-11.278 4.279-2.435 7.687-.479 9.047 1.54zM320.06 459.902l2.867-.52-2.368 3.026-2.124.37z" style="fill:#fff;fill-rule:evenodd"/><path d="m157.883 285.247 3.183 3.7-1.099 3.914-3.178-3.703zM299.566 207.48c-68.606 0-124.42 55.817-124.42 124.424 0 68.61 55.814 124.429 124.42 124.429 68.608 0 124.424-55.82 124.424-124.429 0-68.607-55.816-124.424-124.424-124.424m0 252.617c-70.682 0-128.186-57.506-128.186-128.193 0-70.684 57.504-128.19 128.186-128.19 70.684 0 128.19 57.506 128.19 128.19 0 70.687-57.506 128.193-128.19 128.193M344.033 466.968l-10.158 2.723-.731-2.733 10.156-2.72z" style="fill:#fff;fill-rule:evenodd"/><defs><linearGradient id="c"><stop offset="0%" stop-color="#dedede"/><stop offset="41%" stop-color="#e8e8e8"/><stop offset="100%" stop-color="#9d9d9c"/></linearGradient><linearGradient xlink:href="#c" id="d" x1="0" x2="0" y1="0" y2="1" gradientUnits="objectBoundingBox"/></defs><path d="m290.778 76.663-25.668-.206 20.432 15.4-8.008 24.743 20.738-14.682 21.047 15.401-7.187-24.845 20.432-15.195-25.565-.925-7.801-24.434z" style="fill:url(#d)"/><path d="m356.186 340.49-5.524-4.044-5.445 3.855 2.103-6.495-5.364-4.044 6.738.055 2.21-6.495 2.048 6.414 6.712.243-5.364 3.988zm47.945-47.483v-.002c0-4.49.796-5.946 1.461-8.46.67-2.511-2.255-3.433-3.033-1.303-.78 2.13-2.94 2.925-4.438 2.925-1.496 0-1.16-1.156-4.683-1.156-3.519 0-3.516-3.503-13.61-3.503-10.096 0-8.37 3.569-13.013 3.569-4.649 0-5.318-3.305-9.566-3.305s-5.046 3.17-9.029 3.17c-3.984 0-3.984-3.235-6.176-3.235-2.19 0-1.395 1.387-4.58 2.312-3.19.923-3.988 3.036-2.664 4.36 1.334 1.323 4.385 2.643 4.385 7.269 0 4.624 1.994 12.948 1.994 16.783s-1.06 6.207-1.06 10.439c0 4.224-2.787 6.61-2.787 8.988s2.522 4.36 2.522 6.604c0 2.246-.399 23.516-.399 26.294 0 3.566-.532 4.62-1.597 6.336-.906 1.46.138 1.72-2.125 3.972-2.257 2.24-3.071.517-4.668 2.102-1.595 1.595 1.68 2.455 2.278 3.05.6.593 0 2.111 3.058 2.111 3.051 0 7.566-3.965 10.357-3.965s3.185 2.906 6.508 2.906 2.654-1.32 8.634-1.32c5.975 0 8.101 2.777 11.022 2.777 2.925 0 4.515-.265 7.04-4.76s-1.394-4.556-1.994-2.642c-.595 1.918-2.922 1.587-4.514 1.587-1.596 0-4.116-.529-4.783-.529-.666 0-3.052-1.585-3.052-2.645 0-1.054-1.395-2.972-2.657-4.224-1.263-1.26-1.062-3.966-1.062-7.928 0-3.964-1.2-5.156-1.2-7.533 0-2.38 1.2-3.965 1.2-7.266 0-3.3-.798-5.418.793-6.999 1.592-1.585 1.995-3.568 3.72-3.568 1.731 0 3.124 1.388 4.12 2.379s3.252 1.518 4.513 2.776c1.26 1.25-1.46 1.982.795 6.338 2.259 4.359 4.784 1.05 4.784-1.056 0-2.117 1.328-3.3 1.328-4.755 0-1.457-1.06-1.192-1.06-4.76 0-3.566 2.121-3.963 2.121-6.074 0-2.112-2.257-2.646-2.257-4.629 0-1.98.137-1.058.137-4.36 0-3.31-.205-6.145-1.73-7.663-1.526-1.524-4.783-1.72-4.783.924 0 2.64.933 4.628.933 6.213 0 1.583-.933 3.17-3.586 4.621-2.655 1.455-1.593 2.911-5.048 2.911s-3.718-.93-4.514-3.173c-.795-2.247-.534-8.46-.534-15.992 0-7.531 1.196-10.704 1.196-13.214 0-2.513 2.126-3.831 4.917-4.49 2.789-.661 3.45-3.044 6.903-3.044s5.845.927 8.498 1.984c2.658 1.055 5.65 2.84 5.65 2.84l.728.728c.727.726 3.32 3.304 3.32 5.55 0 2.244 1.461 4.757 2.391 8.59.931 3.837-1 4.295-3.72 7-2.72 2.708-.66 4.104 1.063 4.104s0 1.716 5.846-1.457c5.848-3.17 8.367-9.383 8.367-13.876 0-4.495-2.66-7.137-2.66-11.626z" style="fill:#fff;fill-rule:evenodd"/></svg>