<svg xmlns="http://www.w3.org/2000/svg" id="uuid-c7e03709-1d76-4dee-b39a-3122c3401fec" data-name="Layer 1" viewBox="0 0 400 505.39"><defs><style>.uuid-96aa2f56-cf6d-4ec5-b218-b35dfe499963{fill-rule:evenodd;fill:#fff}</style></defs><path d="M200 106.01c-110.46 0-200 89.4-200 199.69s89.54 199.69 200 199.69 200-89.4 200-199.69-89.54-199.69-200-199.69" style="fill:#005742;fill-rule:evenodd"/><path d="M200 114.13C94.18 114.13 8.39 199.89 8.39 305.7S94.18 497.28 200 497.28s191.61-85.77 191.61-191.58S305.83 114.13 200 114.13m0 375.53c-101.62 0-184.01-82.37-184.01-183.97S98.38 121.73 200 121.73 384.01 204.1 384.01 305.7 301.62 489.67 200 489.67Z" class="uuid-96aa2f56-cf6d-4ec5-b218-b35dfe499963"/><path d="M200 170.21c-74.84 0-135.51 60.67-135.51 135.48S125.17 441.17 200 441.17s135.51-60.66 135.51-135.48S274.83 170.21 200 170.21m0 264.2c-71.1 0-128.73-57.62-128.73-128.71S128.9 176.99 200 176.99s128.73 57.63 128.73 128.71S271.1 434.41 200 434.41" class="uuid-96aa2f56-cf6d-4ec5-b218-b35dfe499963"/><path d="M284.32 296.43c-.14-12.32-4.83-19.1-13.21-19.1-9.37 0-14.13 9.83-14.13 29.21 0 8.84.7 18.58 5.88 23.76 2.34 2.33 5.38 3.52 9.06 3.52 7.3 0 12.39-6.28 13.61-16.79l13.01.9c-1.65 17.97-11.91 28.69-27.44 28.69-7.2 0-13.32-2.48-18.2-7.36-7.16-7.16-11.27-19.39-11.27-33.57s4.1-26.25 11.24-33.4c5-5 11.3-7.53 18.74-7.53 15.99 0 25.05 10.26 26.93 30.49l-14.23 1.17ZM196.49 287.37v12.2h17.35v10.09h-17.35v20.96h-10.64v-53.65h32.44v10.4zM144.12 296.43c-.14-12.32-4.83-19.1-13.2-19.1-9.38 0-14.13 9.83-14.13 29.21 0 8.84.7 18.58 5.89 23.76 2.34 2.33 5.38 3.52 9.06 3.52 7.3 0 12.39-6.28 13.6-16.79l13.01.9c-1.65 17.97-11.91 28.69-27.43 28.69-7.2 0-13.32-2.48-18.2-7.36-7.16-7.16-11.27-19.39-11.27-33.57s4.1-26.25 11.25-33.4c5-5 11.3-7.53 18.74-7.53 15.99 0 25.05 10.26 26.93 30.49l-14.23 1.17ZM321.73 412.21c3.4 0 6.15-2.75 6.15-6.15s-2.75-6.14-6.15-6.14-6.15 2.75-6.15 6.14 2.75 6.15 6.15 6.15m-246.67 0c3.4 0 6.15-2.75 6.15-6.15s-2.75-6.14-6.15-6.14-6.15 2.75-6.15 6.14 2.75 6.15 6.15 6.15m188.82 27.94 2.22 16.45 9.15-4.37-11.36-12.09Zm20.67 21.75-7.13-7.24-11.01 5.26 1.5 9.93-3.12 1.49-4.58-34.33 4.29-2.05 23.87 25.12-3.81 1.82Zm-10.03-29.26-1.7-1.32 6.25-9.32 2.82 2.11zm-22.75 42.92-23.32-23.73 7.06 27.85-3.35.85-8.1-31.95 5.03-1.27 21.74 22.19-6.6-26.03 3.35-.85 8.1 31.95zm-44.26-21.24-4.27 16.05 10.12-.53-5.86-15.52Zm10.73 28.02-3.81-9.42-12.19.63-2.43 9.74-3.45.18 8.95-33.46 4.75-.25 12.41 32.35-4.22.22Zm-39.32-18.28c2.19.3 4.02.4 5.87-1.04 1.3-.99 2.03-2.48 2.25-4.05.26-1.91-.24-3.57-1.67-4.83-1.29-1.2-2.67-1.43-4.38-1.66l-8.14-1.11-1.59 11.66 7.66 1.04Zm5.04 18.48-4.12-14.96-9.05-1.23-1.93 14.14-4.09-.56 4.45-32.65 12.24 1.67c2.67.37 5.19 1.05 7.15 3.01 1.96 1.97 2.88 4.85 2.5 7.61-.53 3.85-3.28 7.02-7.24 7.55l4.36 16.01-4.29-.58Zm-32.2-35.95-9.89 13.34 9.6 3.25zm-.36 30-.06-10.16-11.56-3.91-5.85 8.16-3.28-1.11 20.67-27.79 4.51 1.52-.42 34.64-4-1.35Zm-25.89-28.54c1.74.92 3.36 1.56 5.42.96 1.62-.5 2.96-1.7 3.74-3.18.92-1.74 1.2-3.82.39-5.66-.72-1.63-1.88-2.41-3.37-3.19l-6.41-3.39-5.92 11.22 6.16 3.25Zm-17.67 9.69 15.39-29.14 9.77 5.16c2.51 1.32 4.86 2.94 5.98 5.65 1.06 2.62.69 5.9-.62 8.37-1.19 2.25-3.36 4.09-5.8 4.81-2.96.88-5.63.07-8.27-1.32l-6.54-3.45-6.26 11.85-3.66-1.93Zm249.38-110.18c-.54 1.99-1.18 4.16-.37 6.12.58 1.55 2.1 2.71 3.63 3.13 1.9.51 3.44.14 4.86-1.22 1.16-1.18 1.56-2.61 1.98-4.19l1.95-7.18-10.39-2.82-1.67 6.17Zm-15.23-2.38c-.48 1.76-.82 3.76-.09 5.45.66 1.62 2.01 2.69 3.72 3.15 1.9.52 4.03.2 5.59-.97 1.62-1.2 2.16-3.19 2.65-5l1.96-7.23-11.73-3.18-2.11 7.79Zm-.19-12.7 31.81 8.62-3.25 12.01c-.67 2.46-1.29 4.38-3.26 6.14-2.01 1.74-4.57 2.34-7.16 1.64-3.62-.98-5.73-3.84-5.62-7.54l-.09-.03c-1.9 3.72-5.77 5.5-9.85 4.4-2.69-.73-4.8-2.3-5.89-4.88-1.25-2.93-.71-5.47.09-8.39l3.24-11.96Zm34.09-5.2-20.82-1.25c-3.26-.2-6.27-.57-8.77-2.93-2.51-2.36-3.32-5.73-3.11-9.09.2-3.21 1.07-6.58 3.7-8.64 2.83-2.23 6.15-2.23 9.56-2.02l20.82 1.25-.25 4.12-20.81-1.25c-1.97-.12-4.66-.23-6.46.86-2.05 1.22-2.79 3.97-2.92 6.22-.13 2.11.4 4.55 2 6.04 1.77 1.69 4.22 1.84 6.47 1.98l20.81 1.25-.21 3.45Zm-31.65-28.54-2.4-19.3 32.71-4.07.51 4.1-29.08 3.61 1.89 15.2-3.62.45Zm6.62-28c-6.42.42-11.84-1.74-13.95-8.38-2.88-9.07 4.69-15.55 12.43-18 8.1-2.57 17.11-1.04 20 8.07 2 6.32-1.08 11.38-6.44 14.49l-1.86-3.49c3.63-2.36 6.44-5.42 4.96-10.09-2.17-6.82-10.17-6.3-15.61-4.57-2.47.78-5.41 2.17-7.37 3.95-2.39 2.17-3.86 5.31-2.81 8.6 1.52 4.81 5.85 5.9 10.3 5.6zm-24.97-36.2-10.86-16.14 27.34-18.4 2.31 3.43-24.31 16.36 8.56 12.71-3.03 2.04Zm-13.25-19.59-13.34-14.16 23.99-22.6 2.83 3.01-21.33 20.09 10.51 11.15-2.66 2.5Zm-9.59-47.97-13.55 9.6 8.11 6.08 5.44-15.67Zm-9.68 28.39 3.1-9.67-9.77-7.31-8.1 5.93-2.77-2.07 28.29-19.98 3.81 2.85-11.18 32.79-3.38-2.53Zm-23-36.9c1.86.9 3.87 1.93 5.95 1.49 1.63-.28 3.05-1.57 3.74-2.99.86-1.77.77-3.36-.3-5-.94-1.36-2.28-2.01-3.75-2.72l-6.7-3.25-4.69 9.68 5.75 2.78Zm-5.17 14.52c1.64.8 3.54 1.5 5.34 1.09 1.72-.34 3.01-1.48 3.79-3.08.86-1.77.94-3.92.08-5.67-.88-1.81-2.74-2.72-4.43-3.53l-6.74-3.27-5.3 10.94zm-12.51-2.16 14.36-29.66 11.2 5.42c2.29 1.11 4.07 2.07 5.43 4.34 1.34 2.3 1.46 4.92.29 7.34-1.63 3.37-4.84 4.92-8.46 4.13l-.04.09c3.3 2.56 4.34 6.69 2.5 10.49-1.21 2.51-3.15 4.3-5.89 4.89-3.11.68-5.51-.32-8.23-1.64l-11.15-5.4Zm-30.9-7.89 4.85-28.95-9.24-1.55.6-3.55 22.56 3.78-.6 3.55-9.24-1.55-4.85 28.95zm-16.32-18.41c-.06-2.93-.62-6.33-2.16-8.94-1.54-2.56-4.12-4.33-7.2-4.27-7.35.16-9.2 8.12-9.07 14.03.12 5.67 2.59 13.25 9.55 13.11 7.06-.15 9-8.26 8.88-13.93m-22.76.87c-.17-8.21 3.67-17.28 13.18-17.48 9.27-.2 13.72 8.17 13.89 16.28.17 8.07-3.76 17.42-13.13 17.62-9.46.2-13.77-8.16-13.94-16.42m-11.51 1.58c-.68-2.85-1.94-6.05-4.01-8.28-2.05-2.18-4.95-3.36-7.94-2.64-7.15 1.71-7.27 9.89-5.89 15.63 1.32 5.51 5.34 12.4 12.12 10.78 6.87-1.64 7.05-9.98 5.73-15.49Zm-22.06 5.67c-1.91-7.99-.08-17.66 9.18-19.87 9.02-2.16 15.14 5.07 17.03 12.97 1.88 7.85.02 17.82-9.09 20-9.21 2.2-15.19-5.06-17.11-13.09Zm-15.11 24.34-13.5-30.06 18.41-8.26 1.46 3.24-14.64 6.57 4.29 9.55 12.14-5.45 1.36 3.02-12.14 5.45 6.39 14.24-3.77 1.69Zm-44.5-4.32 6.17 15.41 7.8-6.47-13.98-8.94Zm25.36 16.04-8.69-5.28-9.39 7.79 3.88 9.26-2.66 2.21-12.84-32.17 3.66-3.04L118.14 186l-3.25 2.7Zm-41.26 13.75c1.31-1.6 2.78-3.31 2.84-5.43.11-1.65-.81-3.33-2.03-4.34-1.52-1.25-3.09-1.54-4.93-.88-1.55.6-2.49 1.75-3.53 3.01l-4.72 5.75 8.32 6.82 4.05-4.94Zm12.92 8.41c1.16-1.41 2.29-3.09 2.31-4.94.07-1.75-.73-3.27-2.11-4.4-1.52-1.25-3.59-1.83-5.5-1.4-1.97.43-3.28 2.03-4.47 3.48l-4.75 5.79 9.39 7.71 5.12-6.24Zm-5.03 11.66-25.48-20.9 7.89-9.62c1.61-1.97 2.97-3.47 5.48-4.26 2.55-.76 5.13-.27 7.21 1.44 2.9 2.38 3.65 5.85 2.03 9.19l.07.06c3.26-2.61 7.52-2.65 10.79.03 2.15 1.77 3.44 4.06 3.37 6.87-.06 3.18-1.6 5.28-3.51 7.62l-7.86 9.58Zm-6.15 10.34-28.22-17.02 2.13-3.54 28.22 17.02-2.14 3.54Zm-8.11 16.16-26.84-11.87-3.79 8.57-3.3-1.46 9.25-20.91 3.29 1.46-3.79 8.57 26.84 11.87-1.67 3.78Zm-6.01 17.09-31.58-9.42 1.18-3.96 31.58 9.42zm-21.19 14.84c.32-2.19.44-4.01-.99-5.87-.98-1.31-2.47-2.06-4.04-2.29-1.9-.28-3.58.21-4.85 1.62-1.21 1.28-1.46 2.65-1.7 4.36l-1.19 8.13 11.65 1.7zm18.52-4.87-15 3.98-1.32 9.03 14.12 2.06-.6 4.09-32.61-4.75 1.78-12.22c.39-2.66 1.1-5.18 3.08-7.12s4.88-2.83 7.64-2.43c3.85.56 6.99 3.35 7.48 7.3l16.05-4.21-.62 4.28Zm-19.59 30.05c-2.92.18-6.3.86-8.85 2.51-2.5 1.64-4.17 4.3-3.98 7.36.44 7.33 8.48 8.87 14.38 8.51 5.66-.34 13.14-3.11 12.72-10.06-.43-7.05-8.61-8.67-14.27-8.33Zm1.77 22.71c-8.2.5-17.41-2.99-17.98-12.48-.56-9.25 7.62-14.03 15.72-14.52 8.06-.49 17.56 3.07 18.13 12.42.57 9.44-7.62 14.08-15.86 14.58Zm6.97 5.22c6.43-.17 11.77 2.19 13.62 8.91 2.52 9.17-5.29 15.36-13.12 17.51-8.2 2.25-17.14.38-19.67-8.84-1.76-6.39 1.51-11.33 6.99-14.23l1.73 3.56c-3.72 2.22-6.65 5.17-5.35 9.89 1.9 6.9 9.91 6.69 15.43 5.17 2.5-.69 5.49-1.96 7.52-3.66 2.47-2.07 4.06-5.15 3.14-8.49-1.34-4.87-5.62-6.13-10.07-6l-.21-3.83ZM173.07 191.78c-21.62 12.66-43.24 49.25-45.48 52.96s-21.69-14.42-19.22-18.16c9.43-14.26 28.55-28.29 44.83-34.18 14.75-5.33 25.14-4.3 19.86-.63M183.34 198.9c-12.92 17.63-22.48 55.04-23.61 59.25s-26.93-5.54-25.28-10.16 7.58-15.88 17.01-28.5c5.65-7.56 17.07-20.6 26.03-24.99 4.64-2.27 10.27-1.64 5.84 4.4M197.47 262.58c0 4.88-31.82 1.87-31.05-3.54.76-5.42 9.19-43.79 22.91-60.69.82-1.02 1.34-1.66 2.46-2.48 2.02-1.49 5.09-.1 5.01 2.55.65 22.29.68 59.28.68 64.17M173.07 418.56c-21.62-12.66-43.24-49.25-45.48-52.96s-21.69 14.42-19.22 18.16c9.43 14.26 28.55 28.29 44.83 34.18 14.75 5.33 25.14 4.3 19.86.63M183.34 411.45c-12.92-17.63-22.48-55.04-23.61-59.25s-26.93 5.54-25.28 10.16 7.58 15.88 17.01 28.5c5.65 7.56 17.07 20.6 26.03 24.99 4.64 2.27 10.27 1.64 5.84-4.4M197.47 347.76c0-4.88-31.82-1.87-31.05 3.54.76 5.42 9.19 43.79 22.91 60.69.82 1.02 1.34 1.66 2.46 2.48 2.02 1.49 5.16.42 5.01-1.32.65-22.29.68-60.52.68-65.4M227.27 418.56c21.62-12.66 43.24-49.25 45.48-52.96s21.69 14.42 19.22 18.16c-9.43 14.26-28.55 28.29-44.83 34.18-14.75 5.33-25.14 4.3-19.86.63M217.01 411.45c12.92-17.63 22.48-55.04 23.61-59.25s26.93 5.54 25.28 10.16-7.58 15.88-17.01 28.5c-5.65 7.56-17.07 20.6-26.03 24.99-4.64 2.27-10.27 1.64-5.84-4.4M202.87 347.76c0-4.88 31.82-1.87 31.05 3.54-.76 5.42-9.19 43.79-22.91 60.69-.82 1.02-1.34 1.66-2.46 2.48-2.02 1.49-5.16.42-5.01-1.32-.65-22.29-.68-60.52-.68-65.4M226.71 191.78c21.62 12.66 43.24 49.25 45.48 52.96s21.69-14.42 19.22-18.16c-9.43-14.26-28.55-28.29-44.83-34.18-14.75-5.33-25.14-4.3-19.86-.63M216.44 198.9c12.92 17.63 22.48 55.04 23.61 59.25s26.93-5.54 25.28-10.16-7.58-15.88-17.01-28.5c-5.65-7.56-17.07-20.6-26.03-24.99-4.64-2.27-10.27-1.64-5.84 4.4M202.31 262.58c0 4.88 31.82 1.87 31.05-3.54-.76-5.42-9.19-43.79-22.91-60.69-.82-1.02-1.34-1.66-2.46-2.48-2.02-1.49-5.09-.1-5.01 2.55-.65 22.29-.68 59.28-.68 64.17" class="uuid-96aa2f56-cf6d-4ec5-b218-b35dfe499963"/><path d="m200 0 10.63 30.09 31.9.81-25.32 19.41 9.08 30.59L200 62.81 173.71 80.9l9.09-30.59-25.33-19.41 31.9-.81z" style="fill-rule:evenodd;fill:#fad716"/></svg>