<svg xmlns="http://www.w3.org/2000/svg" xml:space="preserve" viewBox="0 -29.32 513.55 625.57"><!-- Source: https://football-logos.cc --><path d="M322.397 139.347C393.661 171.76 445.302 240.245 453.644 321.2l59.903 24.311-59.903 22.404C441.806 480.97 345.754 569.554 229.76 569.554c-59.029 0-112.894-22.96-153.174-60.38l-53.468 20.02V586L1.986 596.248V157.063C.794 156.348 0 154.998 0 153.41v-5.244c0-2.383 1.907-4.37 4.29-4.37h20.974c2.384 0 4.37 1.987 4.37 4.37v1.033l55.851 22.643c15.572-13.03 32.97-23.993 51.641-32.494-.159-.398-.318-.795-.556-1.192l-15.254-.238 9.93-11.282c-.317-.477-.555-.953-.794-1.35-2.462.556-4.687-1.033-5.72-3.337-.635-1.59-.556-3.258.239-4.608.079-2.225-.08-2.86-2.304-3.814-1.192-.476-2.702-1.112-4.37-3.098-1.35-1.669-2.304-3.575-3.099-5.164-1.747-3.734-1.906-4.29-6.037-4.21-3.814.158-8.82.317-9.772-4.688-.716-3.655 1.509-6.436 3.972-8.342a6.96 6.96 0 0 1 .477-5.88c-3.814-1.588-5.323-6.117-3.417-9.692-3.336-2.383-4.051-6.991-1.51-10.17-3.892-3.098-3.336-9.215 1.034-11.599-2.702-4.051-.636-9.692 4.29-10.804-1.51-5.164 3.178-9.852 8.183-8.819 0-5.243 5.64-8.421 10.17-6.197 0-5.958 6.752-9.057 11.201-5.64 2.384-5.244 9.693-5.562 12.553-.636.477-6.197 9.057-7.23 11.202-1.51 1.192-5.005 7.706-6.038 10.487-1.906 1.192-1.669 3.178-2.622 5.243-2.543.398-4.052 4.529-6.514 8.184-5.084 1.27-3.496 5.72-4.529 8.341-1.987 1.113-3.654 5.72-4.766 8.422-2.224 1.112-3.655 5.72-4.767 8.421-2.145 1.192-3.973 6.277-4.846 8.819-1.748h3.496c.238-3.972 2.542-7.31 5.879-9.057v-3.575h-5.8v-8.74h5.8v-7.388h9.851v7.389h5.88v8.739h-5.88v3.575c1.033.556 1.986 1.192 2.78 1.986 1.828 1.827 2.94 4.37 3.1 7.071h3.495c2.542-3.098 7.706-2.225 8.898 1.748 2.701-2.622 7.15-1.51 8.342 2.145 2.622-2.542 7.23-1.43 8.342 2.224 2.622-2.542 7.15-1.51 8.342 1.987 3.655-1.43 7.865 1.032 8.183 5.084 2.066-.08 4.052.874 5.244 2.543 2.78-4.132 9.295-3.099 10.487 1.906 2.145-5.72 10.725-4.687 11.281 1.51 2.86-4.926 10.17-4.608 12.473.635 4.45-3.416 11.282-.317 11.282 5.641 4.449-2.224 10.09.954 10.09 6.197 5.084-1.033 9.692 3.655 8.262 8.819 4.846 1.112 6.912 6.753 4.21 10.804 4.45 2.384 4.927 8.501 1.034 11.6 2.542 3.178 1.906 7.786-1.43 10.17 1.906 3.574.317 8.103-3.496 9.692a6.96 6.96 0 0 1 .477 5.879c2.462 1.908 4.687 4.687 3.972 8.342-.953 5.005-5.959 4.846-9.693 4.687-4.13-.08-4.29.477-6.117 4.21-.794 1.59-1.668 3.496-3.098 5.165-1.59 1.986-3.099 2.622-4.29 3.098-2.305.954-2.463 1.59-2.305 3.814.795 1.35.874 3.019.16 4.608-.954 2.304-3.258 3.893-5.72 3.336-.24.398-.478.874-.716 1.351l9.852 11.282-15.254.238q-.24.595-.477 1.192m-115.755 81.671 125.606 51.006c-22.8-32.177-60.3-53.15-102.487-53.15-7.865 0-15.65.714-23.119 2.144m128.705 191.23-140.86 52.753a126.2 126.2 0 0 0 35.274 5.005c44.173 0 83.261-23.04 105.586-57.758" style="fill:#a38d44;stroke-width:1.10343" data-source="https://football-logos.cc"></path><path d="M229.761 122.583c-119.17 0-216.89 94.86-221.657 212.76h12.393c4.767-111.147 96.926-200.366 209.264-200.366 105.11 0 192.66 78.256 207.278 179.471l13.189 5.323c-12.315-110.59-106.619-197.188-220.467-197.188m-215.54 274.49c8.898 36.15 26.615 68.881 50.846 95.735 10.805 11.996 29.952 16.445 45.285 12.393 21.292-5.64 34.56-24.39 34.64-46.08 0-8.977-4.211-21.212-10.329-27.885-15.572-17.002-26.615-38.135-31.302-61.572v21.69a5.7 5.7 0 0 1-1.669 4.051c-.794.795-1.906 1.35-3.019 1.59 6.118 15.253 14.857 29.156 25.662 41.312 4.608 5.164 7.547 11.52 8.66 18.431 1.906 12.076-2.702 23.914-12.394 31.382-9.931 7.627-23.12 9.137-34.64 4.21-5.878-2.462-11.042-6.911-15.173-11.757-16.049-18.67-28.84-40.2-37.5-63.717-2.383-6.435-4.528-13.03-6.276-19.782zm86.915-60.538c-.953-.715-2.145-1.192-3.495-1.192h-8.898c4.687-73.568 66.259-132.2 141.018-132.2 55.216 0 103.282 32.097 126.48 78.573l-18.59-7.547c-23.04-35.195-62.843-58.553-107.89-58.553-68.324 0-124.573 53.627-128.625 120.919m239.216 73.806 17.478-6.514c-22.483 48.224-71.502 81.91-128.069 81.91-16.207 0-31.858-2.78-46.317-7.866-12.632-4.37-24.47-10.566-35.195-18.193v-.556c0-6.594-1.669-12.87-4.45-18.83 22.881 20.498 52.992 33.051 85.962 33.051 46.874 0 88.107-25.344 110.591-63.002m96.687-36.228 13.11-4.925C437.753 479.858 343.53 566.296 229.76 566.296c-59.108 0-112.894-23.357-152.777-61.254 7.707 3.655 16.208 5.323 24.629 4.847 16.605 12.87 35.195 23.357 55.216 30.825a208 208 0 0 0 72.932 13.189c105.189 0 192.819-78.415 207.278-179.79M148.01 463.492a144 144 0 0 0 34.321 17.478 144.3 144.3 0 0 0 47.43 8.024c59.03 0 110.035-35.83 132.44-86.836l71.343-26.694c-15.016 98.912-100.819 175.181-203.783 175.181-25.264 0-49.416-4.608-71.82-12.95a206.3 206.3 0 0 1-51.64-28.283c1.588-.318 3.257-.636 4.846-1.033 21.292-5.64 35.195-23.596 36.863-44.887m285.534-150.474-72.774-29.554c-23.04-49.257-73.17-83.579-131.009-83.579-76.587 0-139.588 60.142-144.276 135.458h-61.73c4.767-109.32 95.495-197.109 206.006-197.109 102.885 0 188.608 76.11 203.783 174.784M30.428 397.074h64.75c6.276 16.048 15.413 30.666 26.694 43.378 4.21 4.687 6.912 10.487 7.865 16.763 1.748 10.964-2.304 21.61-11.122 28.283-8.978 6.912-20.974 8.263-31.382 3.893-5.402-2.304-10.17-6.514-13.983-10.963-15.73-18.353-28.362-39.565-36.943-62.684-2.224-6.118-4.21-12.315-5.879-18.67" style="fill:#fff;stroke-width:1.10343"></path><path d="m230.832 582.856-10.944 26.928 7.632 3.024-2.52 6.264-14.184-5.76 13.392-33.12z" style="fill:#a38d44" transform="matrix(1.10343 0 0 1.10343 -81.513 -153.593)"></path><path d="m197.347 496.383-.318 40.518-8.024-1.986.397-6.674-7.547-1.907-3.178 6.038-7.627-1.906 18.352-36.07zm-7.706 25.979.953-17.558L184 521.011zM236.673 507.188c-3.178-.954-6.753-.398-9.374 1.668-5.164 4.21-4.052 14.777-1.033 19.703 2.145 3.496 6.356 4.21 10.01 3.337l-.159 6.991c-6.038 2.542-12.155-.874-15.81-5.164-7.468-8.422-5.958-26.059 4.132-32.017 3.654-2.145 8.42-2.781 12.393-1.033zM276.397 493.046c6.594-1.827 13.03.874 15.095 7.706 1.192 4.29.159 7.707-2.78 11.123l11.758 15.333-7.866 2.304-11.917-15.81 5.164 17.717-7.944 2.304-10.964-37.896zm-.159 6.912 2.78 9.851c4.768-.318 7.23-5.879 3.655-9.295-1.589-1.51-4.21-1.748-6.435-.556M296.338 485.34l12.95 24.787c1.35 2.542 2.94 4.131 5.403 3.257 3.416-1.27 3.575-2.94 1.906-6.117l-13.347-25.582 6.594-3.416 13.665 26.297c2.701 5.164 2.94 10.01-2.463 13.188a47 47 0 0 1-4.37 2.383c-5.958 2.622-10.645-.715-13.585-5.8l-13.347-25.581zM314.929 472.23s-2.86-4.13-.715-7.547c1.589-2.463 6.594-3.098 7.07-4.449.24-.477 0-1.112-.714-2.065l3.495-2.86c2.702 4.13 3.02 6.673.715 8.739-1.906 1.747-4.21 1.668-6.117 3.019-.636.476-.953 1.112-.159 2.304z" style="fill:#a38d44;stroke-width:1.10343"></path><path d="m372.672 577.672 12.384 17.28-5.832 4.104-20.808-29.016 5.76-4.176 19.512 13.104-12.816-17.856 5.4-3.888 20.88 29.016-5.184 3.744z" style="fill:#a38d44" transform="matrix(1.10343 0 0 1.10343 -81.513 -153.593)"></path><path d="m345.516 448.158 35.513 19.465-5.482 6.117-5.72-3.495-5.244 5.8 3.814 5.64-5.323 5.8-23.12-33.21zm19.226 19.147-15.015-9.216 11.122 13.427zM240.487 509.73c-.636 3.178-.715 6.991-.318 10.646.715 6.435 3.655 15.095 10.487 17.399 2.94.953 6.991.556 9.693-.954 6.276-3.495 7.468-12.632 6.991-19.067-.318-3.655-1.112-7.389-2.383-10.408-5.641-13.744-21.451-12.234-24.47 2.384m12.95 21.61c-3.893-1.272-5.323-8.66-5.641-11.997-.238-2.463-.238-4.926 0-6.991.953-9.375 7.945-10.01 10.566-1.033.636 1.986 1.113 4.37 1.272 6.912.317 3.336.317 10.884-3.178 12.87-.715.397-2.225.556-3.02.238" style="fill:#a38d44;stroke-width:1.10343"></path><path d="m113.616 398.032 5.112-13.536 6.192 2.448-2.448 6.552 6.84 2.592 2.088-5.472 6.552 2.52-2.088 5.544 7.2 2.736 2.52-6.48 6.192 2.304-5.184 13.608z" style="fill:#a38d44" transform="matrix(1.10343 0 0 1.10343 -81.513 -153.593)"></path><path d="m60.857 247.395 39.088 10.884-4.052 7.23-6.277-2.145-3.813 6.832 4.926 4.608-3.734 6.833-30.19-27.012zm23.119 14.3-16.684-5.56L81.195 266.7z" style="fill:#a38d44;stroke-width:1.10343"></path><path d="m140.904 344.752 23.184 17.496 4.896-6.552 5.4 4.104-9.216 12.168-28.584-21.528zM184.824 303.856l15.84 24.336 6.912-4.392 3.6 5.616-12.816 8.28-19.44-29.952z" style="fill:#a38d44" transform="matrix(1.10343 0 0 1.10343 -81.513 -153.593)"></path><path d="M178.756 156.269c2.384-.477 4.926.238 6.912 1.43 2.86 1.668 4.767 4.29 5.641 7.468.874 3.257.238 6.435-2.304 8.819 3.893.635 6.515 3.416 7.468 7.07 1.668 5.959-1.51 11.759-7.468 13.348l-9.93 2.621-10.25-38.055zm6.277 32.812c2.7-.16 4.29-2.225 4.13-4.926-.158-2.145-1.509-4.29-3.336-5.244-1.112-.476-2.304-.715-3.575-.079zm-4.29-15.89c1.032.08 1.906-.318 2.542-.953 2.065-1.907 1.112-7.15-1.033-8.501-.953-.556-2.225-.477-4.052 0zM212.84 149.675h1.588c4.926-.16 11.043-1.033 15.095 1.907 3.734 2.621 5.64 6.196 6.833 10.487 1.906 7.07 1.191 18.034-4.45 23.357-2.224 2.145-5.402 3.257-9.454 3.416l-8.262.239zm8.977 32.573c7.627-.635 7.388-9.136 7.23-14.936-.477-5.085-2.146-10.646-8.184-10.884z" style="fill:#a38d44;stroke-width:1.10343"></path><path d="m296.64 274.912 14.4 1.8-.864 6.696-6.912-.864-.864 7.344 5.832.72-.864 7.056-5.832-.72-1.008 7.704 6.984.864-.864 6.696-14.328-1.8zM411.336 329.776l-4.824 5.184-4.104-3.816-19.584 20.952-5.4-5.112 19.512-20.952-4.104-3.816 4.896-5.184zM419.544 339.64l-26.568 23.904-4.536-4.968 26.568-23.976zM399.456 373.048l24.408-28.152 4.176 6.552-16.632 17.424 22.536-8.352 4.032 6.192-35.28 11.304z" style="fill:#a38d44" transform="matrix(1.10343 0 0 1.10343 -81.513 -153.593)"></path><path d="M395.647 259.153c-3.178.238-6.832 1.192-10.328 2.542-5.958 2.463-13.506 7.627-13.903 14.857-.08 3.02 1.43 6.912 3.575 9.057 5.085 5.085 14.142 3.814 20.26 1.589 3.495-1.271 6.752-3.019 9.374-5.005 11.679-9.216 5.958-24.073-8.978-23.04m-17.32 18.352c.24-4.051 6.992-7.468 10.09-8.739a41.7 41.7 0 0 1 6.754-1.906c9.216-1.59 11.758 5.005 3.893 10.01-1.828 1.112-3.973 2.224-6.356 3.098-3.099 1.192-10.408 3.258-13.268.398-.556-.636-1.112-2.066-1.112-2.86M115.437 195.595c-3.178 1.192-5.561 3.973-6.276 7.23-1.43 6.515 6.196 13.983 11.678 15.89 3.814 1.35 7.548-.716 9.852-3.735l4.29 5.482c-3.099 5.88-10.01 7.071-15.492 6.038-11.123-1.827-21.133-16.445-17.081-27.409 1.509-3.972 4.766-7.468 8.977-8.58zM37.976 307.695c1.51-6.753 6.991-11.122 13.983-9.533 4.37.953 6.832 3.495 8.42 7.706l19.068-2.94-1.748 8.025-19.544 2.78 18.035 4.052-1.827 8.024-38.532-8.5zm5.958 3.417 9.931 2.304c1.986-4.37-1.668-9.216-6.356-7.627-2.065.635-3.495 2.78-3.575 5.323M143.084 169.696 155.4 194.8c1.271 2.622 2.78 4.21 5.323 3.337 3.416-1.113 3.654-2.781 2.065-6.038l-12.632-25.82 6.594-3.258 13.03 26.615c2.542 5.243 2.622 10.09-2.78 13.109a34 34 0 0 1-4.53 2.224c-5.958 2.542-10.566-.953-13.347-6.117l-12.711-25.9zM281.64 155.713c6.674 1.748 10.885 7.309 9.137 14.22-1.35 6.833-9.136 10.408-16.287 7.628l-4.131 15.969-8.024-2.066 9.772-38.214zm-3.575 5.879-2.621 9.851c4.21 2.066 9.216-1.43 7.865-6.197-.636-2.065-2.701-3.575-5.244-3.654M296.577 171.364c-2.145 2.463-4.132 5.72-5.562 9.136-2.463 5.959-4.21 14.936.636 20.26 2.145 2.303 5.958 3.972 9.057 3.972 7.15 0 12.632-7.31 15.413-13.188 1.51-3.337 2.621-6.992 3.019-10.17 1.747-14.856-12.87-21.292-22.563-10.01m.715 25.264c-2.781-3.019-.398-10.249.874-13.268 1.032-2.304 2.224-4.449 3.416-6.196 5.402-7.627 11.837-4.767 9.851 4.37-.476 1.985-1.191 4.369-2.224 6.673-1.35 3.019-5.085 9.613-9.137 9.613-.874 0-2.304-.636-2.78-1.192M341.703 184.393c5.561 4.052 7.468 10.726 3.336 16.605-2.621 3.654-5.879 4.925-10.407 4.687l-4.688 18.75-6.753-4.767 5.085-19.147-10.725 15.095-6.753-4.767 22.88-32.176zm-5.482 4.211-6.038 8.183c3.257 3.496 9.216 2.066 9.613-2.86.159-2.145-1.271-4.37-3.575-5.323" style="fill:#a38d44;stroke-width:1.10343"></path><path d="M50.37 389.844c1.668 3.654 3.654 3.654 5.323 0 2.145-4.767 2.145-12.235 0-16.922-1.669-3.655-3.655-3.655-5.323 0-2.146 4.766-2.146 12.155 0 16.922" style="fill:#fff;stroke-width:1.10343"></path><path d="M42.822 375.861c.874.477 1.907.874 3.02 1.192.317-1.986.794-3.814 1.588-5.482 2.78-6.276 8.342-6.276 11.202 0a23.2 23.2 0 0 1 1.589 5.482 20 20 0 0 0 3.019-1.192c4.687-2.304 4.687-5.561 0-7.865-5.72-2.86-14.777-2.86-20.418 0-4.767 2.304-4.767 5.561 0 7.865" style="fill:#fff;stroke-width:1.10343"></path><path d="M59.824 387.699c-.318 1.192-.715 2.383-1.192 3.416-.477 1.112-1.033 1.986-1.668 2.701H97.64c.715 0 1.27-.318 1.748-.715.476-.476.715-1.033.715-1.748v-50.29c0-.635-.239-1.27-.715-1.748-.477-.397-1.033-.715-1.748-.715H8.342c-.636 0-1.271.318-1.668.715-.477.477-.795 1.113-.795 1.748v50.29c0 .715.318 1.272.795 1.748.397.397 1.032.715 1.668.715h40.756c-.635-.715-1.191-1.589-1.668-2.7-.477-1.034-.874-2.225-1.192-3.417H14.221c-.715 0-1.43-.318-1.907-.715-.556-.556-.953-1.192-.953-1.986v-39.883c0-.794.397-1.51.953-2.066.477-.397 1.192-.715 1.907-.715h77.54c.795 0 1.43.318 1.987.715.556.557.953 1.272.953 2.066v39.883c0 .794-.397 1.43-.953 1.986-.556.397-1.192.715-1.986.715z" style="fill:#fff;stroke-width:1.10343"></path><path d="M107.969 313.654h91.205v-88.663l63.876 25.9v62.763h155.08l77.78 31.54-87.313 32.733H263.05v54.421l-63.876 23.993v-78.414h-90.49a126.5 126.5 0 0 1-4.529-33.527c0-10.566 1.271-20.895 3.814-30.746" style="fill:#57175e;stroke-width:1.10343"></path><path d="M41.392 365.056c6.594-3.257 16.684-3.257 23.278 0 7.15 3.575 7.15 10.17 0 13.745-1.271.635-2.701 1.112-4.131 1.51 0 1.35 0 2.78-.16 4.13h30.985v-38.85H14.618v38.85h31.064c-.159-1.35-.238-2.78-.159-4.13-1.51-.398-2.86-.875-4.131-1.51-7.23-3.575-7.23-10.17 0-13.745" style="fill:#fff;stroke-width:1.10343"></path><path d="m23.12 169.696 32.493 32.414c1.589-1.986 3.257-3.893 4.926-5.88l-37.42-37.419Zm103.44 103.36L160.8 307.14h10.646l-40.36-40.28a89 89 0 0 0-4.528 6.197" style="fill:#afdcfd;stroke-width:1.10343"></path><path d="M6.674 158.573h6.276V283.86c-2.78 9.852-4.926 20.1-6.276 30.508zm6.276 246.445v179.233l-6.276 3.258V396.835a6 6 0 0 0 1.668.239h2.542a292 292 0 0 0 2.066 7.944M279.813 109.077c16.049 3.416 31.461 8.422 46.16 14.936-.24.398-.398.795-.636 1.271l-15.175.239 9.852 11.122c-.239.477-.398.954-.636 1.43-57.043-24.946-122.27-24.946-179.312 0-.16-.476-.398-.953-.557-1.43l9.772-11.122-15.095-.239c-.238-.476-.476-.873-.715-1.27 14.698-6.515 30.19-11.52 46.239-14.937 32.89-6.991 67.292-6.991 100.103 0" style="fill:#fff;stroke-width:1.10343"></path><path d="M226.663 45.996c0-1.748 1.35-3.178 3.098-3.178a3.187 3.187 0 0 1 3.178 3.178c0 1.669-1.43 3.099-3.178 3.099s-3.098-1.43-3.098-3.099M226.663 38.29c0-1.748 1.35-3.178 3.098-3.178a3.187 3.187 0 0 1 3.178 3.178c0 1.748-1.43 3.098-3.178 3.098s-3.098-1.35-3.098-3.098M226.663 30.583c0-1.748 1.35-3.178 3.098-3.178a3.187 3.187 0 0 1 3.178 3.178c0 1.748-1.43 3.099-3.178 3.099s-3.098-1.35-3.098-3.099M226.663 22.877c0-1.748 1.35-3.178 3.098-3.178a3.187 3.187 0 0 1 3.178 3.178 3.187 3.187 0 0 1-3.178 3.178c-1.747 0-3.098-1.43-3.098-3.178M226.663 15.17c0-1.747 1.35-3.177 3.098-3.177a3.187 3.187 0 0 1 3.178 3.178 3.187 3.187 0 0 1-3.178 3.177c-1.747 0-3.098-1.43-3.098-3.177M227.457-.322c0-1.191 1.033-2.224 2.304-2.224 1.272 0 2.304 1.033 2.304 2.224a2.306 2.306 0 0 1-2.304 2.304 2.306 2.306 0 0 1-2.304-2.304M226.663 7.464c0-1.748 1.35-3.178 3.098-3.178a3.187 3.187 0 0 1 3.178 3.178 3.187 3.187 0 0 1-3.178 3.178c-1.747 0-3.098-1.43-3.098-3.178" style="fill:#0090c6;stroke-width:1.10343"></path><path d="M229.761 63.077c-1.27.556-3.416 2.622-5.64 2.622-2.702 0-5.164-4.528-3.655-6.038 1.59-1.51 4.767-.397 5.959-2.463 1.032-2.065-.239-5.482 3.336-5.005 3.655-.477 2.304 2.94 3.417 5.005s4.37.954 5.879 2.463c1.51 1.51-.954 6.038-3.575 6.038-2.304 0-4.37-2.066-5.72-2.622" style="fill:#db5232;stroke-width:1.10343"></path><path d="M201.478 112.97c0-2.383 1.986-4.37 4.37-4.37 2.383 0 4.37 1.987 4.37 4.37s-1.987 4.29-4.37 4.29-4.37-1.906-4.37-4.29" style="fill:#a38d44;stroke-width:1.10343"></path><path d="M203.941 112.97c0-1.112.874-1.986 1.907-1.986 1.112 0 1.986.874 1.986 1.986 0 1.033-.874 1.907-1.986 1.907-1.033 0-1.907-.874-1.907-1.907" style="fill:#0090c6;stroke-width:1.10343"></path><path d="m268.272 240.424 13.824-6.408 13.896 6.408-13.896 6.408z" style="fill:#a38d44" transform="matrix(1.10343 0 0 1.10343 -81.513 -153.593)"></path><path d="m271.872 240.424 10.224 4.68 10.296-4.68-10.296-4.752z" style="fill:#db5232" transform="matrix(1.10343 0 0 1.10343 -81.513 -153.593)"></path><path d="m225.072 247.768 12.24-9.072 14.904 3.384-12.312 9.144z" style="fill:#a38d44" transform="matrix(1.10343 0 0 1.10343 -81.513 -153.593)"></path><path d="m228.6 247.048 11.016 2.52 9.072-6.768-11.016-2.52zM187.128 262.744l11.304.144 7.416-8.496-11.232-.144z" style="fill:#db5232" transform="matrix(1.10343 0 0 1.10343 -81.513 -153.593)"></path><path d="M154.366 123.775c-.477-2.383 1.033-4.687 3.337-5.164 2.383-.477 4.687 1.033 5.164 3.337.477 2.383-1.033 4.687-3.337 5.164-2.383.476-4.687-1.033-5.164-3.337" style="fill:#a38d44;stroke-width:1.10343"></path><path d="M156.67 123.298c-.159-1.112.477-2.145 1.51-2.383 1.112-.159 2.145.477 2.303 1.51.239 1.112-.397 2.144-1.51 2.383-1.032.159-2.065-.477-2.303-1.51" style="fill:#0090c6;stroke-width:1.10343"></path><path d="M257.965 112.97c0-2.383-1.908-4.37-4.29-4.37s-4.29 1.987-4.29 4.37a4.27 4.27 0 0 0 4.29 4.29 4.27 4.27 0 0 0 4.29-4.29" style="fill:#a38d44;stroke-width:1.10343"></path><path d="M255.661 112.97a1.967 1.967 0 0 0-1.986-1.986c-1.033 0-1.907.874-1.907 1.986 0 1.033.874 1.907 1.907 1.907 1.112 0 1.986-.874 1.986-1.907" style="fill:#0090c6;stroke-width:1.10343"></path><path d="m339.12 247.768-12.24-9.072-14.904 3.384 12.24 9.144z" style="fill:#a38d44" transform="matrix(1.10343 0 0 1.10343 -81.513 -153.593)"></path><path d="m335.592 247.048-11.016 2.52-9.072-6.768 11.016-2.52zM377.064 262.744l-11.304.144-7.488-8.496 11.304-.144z" style="fill:#db5232" transform="matrix(1.10343 0 0 1.10343 -81.513 -153.593)"></path><path d="M305.157 123.775c.477-2.383-1.033-4.687-3.416-5.164-2.304-.477-4.608 1.033-5.085 3.337-.556 2.383.953 4.687 3.337 5.164 2.304.476 4.608-1.033 5.164-3.337" style="fill:#a38d44;stroke-width:1.10343"></path><path d="M302.774 123.298a2.01 2.01 0 0 0-1.51-2.383c-1.033-.159-2.066.477-2.304 1.51a2.01 2.01 0 0 0 1.51 2.383c1.032.159 2.065-.477 2.303-1.51M226.663 70.784c0-1.748 1.35-3.099 3.098-3.099s3.178 1.35 3.178 3.099a3.187 3.187 0 0 1-3.178 3.178c-1.747 0-3.098-1.43-3.098-3.178M101.216 66.652c0-1.747 1.43-3.098 3.178-3.098s3.178 1.35 3.178 3.098a3.187 3.187 0 0 1-3.178 3.178 3.187 3.187 0 0 1-3.178-3.178M100.183 56.8c0-1.747 1.35-3.098 3.098-3.098s3.178 1.351 3.178 3.099a3.187 3.187 0 0 1-3.178 3.178c-1.747 0-3.098-1.43-3.098-3.178M102.646 46.711c0-1.748 1.35-3.178 3.098-3.178a3.187 3.187 0 0 1 3.178 3.178 3.187 3.187 0 0 1-3.178 3.178c-1.748 0-3.098-1.43-3.098-3.178M107.81 37.972a3.187 3.187 0 0 1 3.178-3.178c1.748 0 3.098 1.43 3.098 3.178s-1.35 3.178-3.098 3.178a3.187 3.187 0 0 1-3.178-3.178M116.31 31.14a3.187 3.187 0 0 1 3.179-3.178c1.668 0 3.098 1.43 3.098 3.177s-1.43 3.099-3.098 3.099c-1.748 0-3.178-1.35-3.178-3.099M126.4 24.863a3.187 3.187 0 0 1 3.178-3.178 3.187 3.187 0 0 1 3.178 3.178c0 1.669-1.43 3.099-3.178 3.099s-3.177-1.43-3.177-3.099M137.126 22.082c0-1.747 1.35-3.177 3.098-3.177a3.187 3.187 0 0 1 3.178 3.177 3.187 3.187 0 0 1-3.178 3.178c-1.747 0-3.098-1.43-3.098-3.178M165.886 27.405c0-1.51 1.271-2.7 2.78-2.7a2.68 2.68 0 0 1 2.702 2.7c0 1.51-1.192 2.781-2.701 2.781s-2.781-1.271-2.781-2.78M161.834 37.257a2.68 2.68 0 0 1 2.701-2.701 2.68 2.68 0 0 1 2.701 2.7 2.68 2.68 0 0 1-2.7 2.702 2.68 2.68 0 0 1-2.702-2.701M161.834 48.22a2.68 2.68 0 0 1 2.701-2.7 2.68 2.68 0 0 1 2.701 2.7 2.68 2.68 0 0 1-2.7 2.702 2.68 2.68 0 0 1-2.702-2.701M106.777 85.64a3.187 3.187 0 0 1 3.178-3.178 3.187 3.187 0 0 1 3.178 3.178c0 1.748-1.43 3.099-3.178 3.099s-3.178-1.35-3.178-3.099M209.185 2.697a2.306 2.306 0 0 1 2.304-2.304 2.306 2.306 0 0 1 2.304 2.304c0 1.272-1.033 2.225-2.304 2.225-1.272 0-2.304-.953-2.304-2.225M176.611 13.184a2.68 2.68 0 0 1 2.701-2.7 2.68 2.68 0 0 1 2.702 2.7 2.68 2.68 0 0 1-2.702 2.702 2.68 2.68 0 0 1-2.7-2.702M192.421 7.067a2.306 2.306 0 0 1 2.304-2.304c1.192 0 2.225 1.033 2.225 2.304s-1.033 2.304-2.225 2.304a2.306 2.306 0 0 1-2.304-2.304" style="fill:#0090c6;stroke-width:1.10343"></path><circle cx="203.067" cy="4.842" r="2.304" style="fill:#0090c6;stroke-width:1.10343"></circle><path d="M148.884 19.222c0-1.747 1.43-3.098 3.178-3.098s3.098 1.35 3.098 3.098-1.35 3.178-3.098 3.178a3.187 3.187 0 0 1-3.178-3.178M160.007 18.587c0-1.748 1.43-3.178 3.098-3.178a3.187 3.187 0 0 1 3.178 3.178 3.187 3.187 0 0 1-3.178 3.178c-1.668 0-3.098-1.43-3.098-3.178" style="fill:#0090c6;stroke-width:1.10343"></path><circle cx="186.304" cy="9.212" r="2.304" style="fill:#0090c6;stroke-width:1.10343"></circle><path d="M210.615 78.331c.238-1.112 1.827-5.72 1.827-5.72s-1.668-2.542-1.51-3.575c.16-.954 1.59-2.066 2.463-2.384.795-.317 6.674 1.59 7.15 2.304.477.795-2.383 4.29-1.986 5.323.398 1.033 4.29 1.192 4.37 2.066.08.953-2.622 5.243-3.496 5.402-.874.239-4.051-1.35-4.449-1.51-.397-.158-4.767-.079-4.37-1.906M140.701 28.28c-.556 2.542-22.722 6.593-25.264 22.96-2.622 16.366 13.109 24.39 13.109 24.39s2.621 1.51 0 4.37c-2.543 2.78-8.263-.874-8.263-.874s-13.506-8.104-10.964-27.33c2.622-19.226 31.938-25.98 31.382-23.517" style="fill:#db5232;stroke-width:1.10343"></path><path d="M143.402 34.873s-15.174 5.403-18.908 12.633c-3.814 7.15 1.668 21.212 1.668 21.212s3.337-2.463 5.641-3.019 5.243.397 8.421-.159 4.529-7.945 4.529-7.945-2.066-10.963-2.066-13.267c0-3.575.715-9.455.715-9.455M134.504 68.48c1.112-.874 4.608.794 6.912-.318 2.304-1.192 4.529-3.496 4.529-3.496s.238-.556 2.304.874c1.986 1.43 4.608 4.052 5.164 6.038.556 2.066-2.304 0-2.86 1.748-.557 1.748 0 4.37 0 4.37s-6.595 4.766-9.455 5.084-4.925-1.907-6.594-5.084c-1.748-3.178.556-2.622 1.112-3.814.557-1.112-2.304-4.608-1.112-5.402M106.539 89.136c1.191-.159 6.038-.08 6.038-.08s1.906-2.462 2.94-2.542c.953-.159 2.462.874 3.018 1.59.556.635.636 6.832.08 7.547-.556.635-4.847-.954-5.72-.318-.795.715.238 4.528-.636 4.846-.795.318-5.72-.874-6.197-1.668-.477-.715.08-4.29.08-4.688s-1.43-4.449.397-4.687M134.822 87.865c.159 1.112.238 5.958.238 5.958s2.463 1.907 2.622 2.86c.159.954-.874 2.543-1.589 3.099-.635.556-6.832.715-7.547.238-.715-.556.874-4.925.159-5.72-.636-.794-4.45.318-4.847-.556-.318-.795.795-5.72 1.59-6.197.714-.556 4.29 0 4.687-.08.397 0 4.449-1.509 4.687.398M210.535 17.554s-16.684 6.038-22.166 14.46c-5.481 8.58-2.145 19.702-2.145 19.702s8.342-.794 10.646-1.35 5.323.476 8.501-.16c3.178-.555 4.529-7.944 4.529-7.944s-.398-9.295-.398-11.6c0-3.574 1.033-13.108 1.033-13.108" style="fill:#db5232;stroke-width:1.10343"></path><path d="M211.091 10.801c-2.304 2.463-28.839 13.983-31.46 27.091-2.543 13.268 10.486 19.147 7.865 22.802-1.59 2.304-17.161-2.86-12.633-24.311 4.608-21.45 38.612-28.045 36.228-25.582M189.72 62.68c.08-1.827 2.066-.318 2.622-2.224.556-1.987-1.033-6.356-.715-6.992.397-.715 6.991 1.59 9.533 1.112 2.463-.476 2.066-2.145 4.29-2.86 2.305-.715 7.23 7.786 5.96 10.328-1.193 2.543-5.483 6.833-5.483 6.833s-6.753 2.78-9.772 1.51c-3.098-1.272-6.594-5.8-6.435-7.707M144.038 42.66c-.318 14.618 5.482 25.581 9.534 23.436 3.734-1.906-5.403-9.136-5.165-21.689.318-14.141 9.216-22.166 6.912-23.04s-10.963 9.216-11.281 21.292M216.017 3.095c.874-.477 1.51.317 2.384 3.098 1.191 3.655-4.608 22.166-4.608 28.363s3.734 17.955 1.747 21.689c-1.986 3.813-3.734-19.941-4.21-24.39-.398-4.37 4.528-21.054 4.052-24.39-.398-3.338-.239-3.894.635-4.37" style="fill:#db5232;stroke-width:1.10343"></path><path d="M221.896 18.507c1.192 2.702-1.668 2.463-1.51 17.002.239 14.46 2.146 11.043 1.351 16.128-.794 5.164-5.323-13.506-5.323-18.273s4.37-17.478 5.482-14.857" style="fill:#db5232;stroke-width:1.10343"></path><path d="M103.44 75.71a3.187 3.187 0 0 1 3.178-3.179c1.748 0 3.099 1.43 3.099 3.178s-1.351 3.178-3.099 3.178a3.187 3.187 0 0 1-3.178-3.178M170.255 18.666c0-1.51 1.272-2.701 2.781-2.701a2.68 2.68 0 0 1 2.701 2.701 2.68 2.68 0 0 1-2.7 2.701c-1.51 0-2.782-1.191-2.782-2.7M198.539 75.392a3.09 3.09 0 0 1 2.78-3.496c1.748-.159 3.258 1.112 3.496 2.78.159 1.748-1.112 3.337-2.86 3.496-1.668.16-3.257-1.033-3.416-2.78M169.858 77.696c-.397-1.669.715-3.337 2.384-3.734 1.747-.318 3.416.715 3.813 2.462.318 1.669-.794 3.337-2.463 3.734-1.748.318-3.416-.715-3.734-2.462M143.64 87.626c-.556-1.668.398-3.416 1.987-3.972 1.668-.556 3.495.397 3.972 2.066.556 1.589-.318 3.416-1.986 3.972-1.668.477-3.416-.397-3.972-2.066" style="fill:#0090c6;stroke-width:1.10343" data-source="https://football-logos.cc"></path><path d="M166.363 59.184c1.112.318 5.56 2.225 5.56 2.225s2.702-1.51 3.655-1.271c.954.238 1.987 1.748 2.225 2.621.318.795-1.986 6.595-2.701 6.992-.795.477-4.132-2.701-5.164-2.384s-1.51 4.29-2.384 4.29c-.953 0-5.005-3.018-5.164-3.892s1.669-3.973 1.827-4.37c.16-.318.318-4.687 2.146-4.21M156.114 85.402c.159-1.112 1.43-5.8 1.43-5.8s-1.907-2.463-1.748-3.495c.08-.954 1.51-2.145 2.304-2.543.795-.317 6.753 1.113 7.31 1.828.555.715-2.146 4.449-1.67 5.402.477 1.033 4.37.953 4.53 1.827.079.954-2.305 5.323-3.179 5.641-.874.238-4.13-1.112-4.528-1.271-.397-.08-4.687.238-4.45-1.589M190.912 71.975c-.318 1.113-2.543 5.403-2.543 5.403s1.351 2.86 1.113 3.734c-.318.953-1.907 1.907-2.781 2.065-.874.239-6.435-2.383-6.832-3.177-.398-.795 2.94-3.973 2.7-5.006-.238-1.032-4.13-1.747-4.13-2.621.079-.954 3.336-4.847 4.21-4.926.874-.08 3.814 1.907 4.21 2.065.398.239 4.688.716 4.053 2.463" style="fill:#db5232;stroke-width:1.10343"></path><path d="M121.554 106.455c0-1.747 1.43-3.098 3.099-3.098 1.748 0 3.178 1.35 3.178 3.098a3.187 3.187 0 0 1-3.178 3.178c-1.669 0-3.099-1.43-3.099-3.178" style="fill:#0090c6;stroke-width:1.10343"></path><path d="M128.784 105.105c7.23.556 13.109-2.384 17.002-10.17.556-1.032 2.065-1.588 3.098-1.191 9.772 3.972 17.637 3.019 23.755-6.276.556-.954 2.145-1.351 3.098-.795 9.375 5.085 17.24 4.767 24.47-3.813.715-.795 2.304-1.033 3.178-.398 8.819 6.118 16.684 6.436 24.788-1.191.794-.795 2.462-.795 3.257 0 8.103 7.627 15.89 7.309 24.708 1.191.874-.635 2.463-.397 3.178.398 7.15 8.58 15.015 8.898 24.39 3.813.954-.556 2.542-.159 3.178.795 6.117 9.295 13.903 10.248 23.755 6.276 1.033-.397 2.542.159 3.019 1.192 3.893 7.785 9.772 10.725 17.001 10.169l.477 4.767c-8.421.635-15.81-2.463-20.736-10.885-10.328 3.655-19.464 1.987-26.297-7.15-10.01 4.846-19.226 4.052-27.091-4.29-9.295 5.88-18.511 5.959-27.25-1.35-8.74 7.309-17.956 7.23-27.33 1.35-7.866 8.342-17.082 9.136-27.012 4.29-6.833 9.137-15.97 10.805-26.377 7.15-4.846 8.422-12.235 11.52-20.736 10.885z" style="fill:#db5232;stroke-width:1.10343"></path><path d="M228.252-10.65c.477-.08 1.033-.159 1.51-.159.556 0 1.032.08 1.588.16v-5.88h5.88v-2.066h-5.88v-7.309h-3.098v7.31h-5.88v2.065h5.88zM237.23-.56c-.16-1.827-.954-3.416-2.146-4.687-1.35-1.351-3.257-2.145-5.323-2.145-3.892 0-7.15 3.019-7.388 6.832h2.304c.159-2.701 2.383-4.846 5.084-4.846 2.781 0 5.006 2.145 5.085 4.846z" style="fill:#fff;stroke-width:1.10343"></path><path d="M358.228 66.652c0-1.747-1.43-3.098-3.178-3.098s-3.099 1.35-3.099 3.098 1.351 3.178 3.099 3.178a3.187 3.187 0 0 0 3.178-3.178M359.34 56.8c0-1.747-1.43-3.098-3.178-3.098s-3.178 1.351-3.178 3.099a3.187 3.187 0 0 0 3.178 3.178 3.187 3.187 0 0 0 3.178-3.178M356.877 46.711a3.187 3.187 0 0 0-3.178-3.178 3.187 3.187 0 0 0-3.178 3.178 3.187 3.187 0 0 0 3.178 3.178 3.187 3.187 0 0 0 3.178-3.178M351.634 37.972c0-1.748-1.351-3.178-3.099-3.178a3.187 3.187 0 0 0-3.178 3.178 3.187 3.187 0 0 0 3.178 3.178c1.748 0 3.099-1.43 3.099-3.178M343.212 31.14a3.187 3.187 0 0 0-3.178-3.178 3.187 3.187 0 0 0-3.178 3.177c0 1.748 1.43 3.099 3.178 3.099s3.178-1.35 3.178-3.099M333.043 24.863c0-1.748-1.43-3.178-3.099-3.178a3.187 3.187 0 0 0-3.177 3.178c0 1.669 1.43 3.099 3.177 3.099 1.669 0 3.099-1.43 3.099-3.099M322.397 22.082a3.187 3.187 0 0 0-3.178-3.177c-1.748 0-3.098 1.43-3.098 3.177s1.35 3.178 3.098 3.178a3.187 3.187 0 0 0 3.178-3.178M293.558 27.405a2.68 2.68 0 0 0-2.702-2.7 2.68 2.68 0 0 0-2.7 2.7c0 1.51 1.19 2.781 2.7 2.781s2.702-1.271 2.702-2.78M297.689 37.257c0-1.51-1.271-2.701-2.782-2.701-1.43 0-2.701 1.191-2.701 2.7s1.271 2.702 2.701 2.702c1.51 0 2.782-1.192 2.782-2.701M297.689 48.22c0-1.509-1.271-2.7-2.782-2.7-1.43 0-2.701 1.191-2.701 2.7s1.271 2.702 2.701 2.702c1.51 0 2.782-1.192 2.782-2.701M352.666 85.64a3.187 3.187 0 0 0-3.178-3.178c-1.747 0-3.098 1.43-3.098 3.178s1.35 3.099 3.098 3.099 3.178-1.35 3.178-3.099M250.338 2.697a2.306 2.306 0 0 0-2.304-2.304c-1.27 0-2.224 1.033-2.224 2.304 0 1.272.953 2.225 2.224 2.225s2.304-.953 2.304-2.225M282.912 13.184c0-1.51-1.271-2.7-2.781-2.7-1.43 0-2.701 1.19-2.701 2.7s1.271 2.702 2.701 2.702c1.51 0 2.78-1.192 2.78-2.702" style="fill:#0090c6;stroke-width:1.10343"></path><circle cx="264.798" cy="7.067" r="2.304" style="fill:#0090c6;stroke-width:1.10343"></circle><path d="M258.68 4.842c0-1.27-1.033-2.304-2.224-2.304a2.306 2.306 0 0 0-2.304 2.304 2.306 2.306 0 0 0 2.304 2.304c1.191 0 2.224-1.032 2.224-2.304M310.56 19.222c0-1.747-1.351-3.098-3.1-3.098-1.747 0-3.177 1.35-3.177 3.098a3.187 3.187 0 0 0 3.178 3.178c1.748 0 3.098-1.43 3.098-3.178M299.516 18.587a3.187 3.187 0 0 0-3.178-3.178 3.187 3.187 0 0 0-3.178 3.178 3.187 3.187 0 0 0 3.178 3.178 3.187 3.187 0 0 0 3.178-3.178" style="fill:#0090c6;stroke-width:1.10343"></path><circle cx="273.219" cy="9.212" r="2.304" style="fill:#0090c6;stroke-width:1.10343"></circle><path d="M248.908 78.331c-.238-1.112-1.748-5.72-1.748-5.72s1.669-2.542 1.51-3.575c-.159-.954-1.668-2.066-2.463-2.384-.874-.317-6.753 1.59-7.23 2.304-.476.795 2.463 4.29 2.066 5.323s-4.37 1.192-4.45 2.066c0 .953 2.702 5.243 3.576 5.402.874.239 4.052-1.35 4.45-1.51.396-.158 4.686-.079 4.29-1.906M318.822 28.28c.556 2.542 22.642 6.593 25.264 22.96 2.622 16.366-13.188 24.39-13.188 24.39s-2.622 1.51 0 4.37c2.622 2.78 8.262-.874 8.262-.874s13.586-8.104 10.964-27.33-31.938-25.98-31.302-23.517" style="fill:#db5232;stroke-width:1.10343"></path><path d="M316.041 34.873s15.254 5.403 18.988 12.633c3.734 7.15-1.748 21.212-1.748 21.212s-3.257-2.463-5.561-3.019-5.323.397-8.5-.159c-3.179-.556-4.53-7.945-4.53-7.945s2.066-10.963 2.066-13.267c0-3.575-.715-9.455-.715-9.455M325.019 68.48c-1.192-.874-4.608.794-6.912-.318-2.304-1.192-4.529-3.496-4.529-3.496s-.317-.556-2.304.874c-2.065 1.43-4.608 4.052-5.243 6.038-.556 2.066 2.304 0 2.94 1.748.556 1.748 0 4.37 0 4.37s6.514 4.766 9.374 5.084c2.94.318 4.926-1.907 6.674-5.084 1.748-3.178-.556-2.622-1.192-3.814-.556-1.112 2.304-4.608 1.192-5.402M352.905 89.136c-1.113-.159-5.959-.08-5.959-.08s-1.986-2.462-2.94-2.542c-.953-.159-2.462.874-3.018 1.59-.556.635-.636 6.832-.08 7.547.556.635 4.846-.954 5.64-.318.875.715-.158 4.528.636 4.846.795.318 5.72-.874 6.197-1.668.477-.715-.079-4.29-.079-4.688s1.43-4.449-.397-4.687M324.622 87.865c-.16 1.112-.16 5.958-.16 5.958s-2.462 1.907-2.621 2.86c-.159.954.874 2.543 1.51 3.099.714.556 6.832.715 7.547.238.715-.556-.874-4.925-.16-5.72.716-.794 4.45.318 4.847-.556.397-.795-.794-5.72-1.51-6.197-.794-.556-4.29 0-4.766-.08-.397 0-4.45-1.509-4.688.398M248.988 17.554s16.604 6.038 22.086 14.46c5.482 8.58 2.225 19.702 2.225 19.702s-8.422-.794-10.726-1.35-5.243.476-8.342-.16c-3.178-.555-4.528-7.944-4.528-7.944s.397-9.295.397-11.6c0-3.574-1.112-13.108-1.112-13.108" style="fill:#db5232;stroke-width:1.10343"></path><path d="M248.432 10.801c2.383 2.463 28.839 13.983 31.381 27.091 2.622 13.268-10.487 19.147-7.865 22.802 1.668 2.304 17.16-2.86 12.632-24.311-4.528-21.45-38.532-28.045-36.148-25.582M269.803 62.68c-.159-1.827-2.066-.318-2.622-2.224-.635-1.987 1.033-6.356.636-6.992-.318-.715-6.912 1.59-9.455 1.112-2.462-.476-1.986-2.145-4.29-2.86s-7.23 7.786-5.958 10.328c1.27 2.543 5.482 6.833 5.482 6.833s6.673 2.78 9.772 1.51c3.098-1.272 6.514-5.8 6.435-7.707M315.406 42.66c.317 14.618-5.482 25.581-9.534 23.436-3.734-1.906 5.482-9.136 5.243-21.689-.317-14.141-9.295-22.166-6.99-23.04 2.303-.873 10.963 9.216 11.28 21.292M243.585 3.095c-.874-.477-1.589.317-2.463 3.098-1.191 3.655 4.608 22.166 4.608 28.363s-3.734 17.955-1.747 21.689c1.986 3.813 3.734-19.941 4.21-24.39.477-4.37-4.528-21.054-4.052-24.39.477-3.338.318-3.894-.556-4.37" style="fill:#db5232;stroke-width:1.10343"></path><path d="M237.627 18.507c-1.113 2.702 1.748 2.463 1.51 17.002-.16 14.46-2.066 11.043-1.351 16.128.794 5.164 5.323-13.506 5.323-18.273s-4.37-17.478-5.482-14.857" style="fill:#db5232;stroke-width:1.10343"></path><path d="M356.003 75.71c0-1.748-1.35-3.179-3.098-3.179a3.187 3.187 0 0 0-3.178 3.178 3.187 3.187 0 0 0 3.178 3.178c1.748 0 3.098-1.43 3.098-3.178M289.188 18.666a2.68 2.68 0 0 0-2.701-2.701c-1.51 0-2.78 1.192-2.78 2.701s1.27 2.701 2.78 2.701a2.68 2.68 0 0 0 2.701-2.7M260.984 75.392c.16-1.748-1.112-3.337-2.86-3.496-1.589-.159-3.178 1.112-3.337 2.78-.238 1.748 1.033 3.337 2.702 3.496 1.747.16 3.257-1.033 3.495-2.78M289.665 77.696c.317-1.669-.795-3.337-2.463-3.734-1.669-.318-3.416.715-3.734 2.462-.397 1.669.715 3.337 2.463 3.734a3.205 3.205 0 0 0 3.734-2.462M315.882 87.626c.477-1.668-.397-3.416-2.065-3.972-1.669-.556-3.417.397-3.973 2.066-.556 1.589.398 3.416 2.066 3.972 1.668.477 3.416-.397 3.972-2.066" style="fill:#0090c6;stroke-width:1.10343"></path><path d="M293.16 59.184c-1.191.318-5.64 2.225-5.64 2.225s-2.702-1.51-3.655-1.271c-.953.238-1.986 1.748-2.224 2.621-.239.795 1.986 6.595 2.78 6.992.795.477 4.131-2.701 5.164-2.384s1.43 4.29 2.384 4.29c.874 0 5.005-3.018 5.164-3.892s-1.669-3.973-1.828-4.37c-.158-.318-.397-4.687-2.145-4.21M303.41 85.402c-.16-1.112-1.431-5.8-1.431-5.8s1.827-2.463 1.748-3.495c-.159-.954-1.51-2.145-2.304-2.543-.874-.317-6.833 1.113-7.389 1.828-.476.715 2.225 4.449 1.748 5.402-.477 1.033-4.449.953-4.528 1.827-.16.954 2.304 5.323 3.178 5.641.794.238 4.13-1.112 4.528-1.271.397-.08 4.687.238 4.45-1.589M268.532 71.975c.397 1.113 2.542 5.403 2.542 5.403s-1.35 2.86-1.033 3.734c.239.953 1.907 1.907 2.701 2.065.874.239 6.515-2.383 6.833-3.177.397-.795-2.94-3.973-2.701-5.006.317-1.032 4.21-1.747 4.13-2.621-.078-.954-3.256-4.847-4.21-4.926-.874-.08-3.813 1.907-4.21 2.065-.318.239-4.608.716-4.052 2.463" style="fill:#db5232;stroke-width:1.10343"></path><path d="M337.969 106.455c0-1.747-1.43-3.098-3.178-3.098s-3.178 1.35-3.178 3.098a3.187 3.187 0 0 0 3.178 3.178 3.187 3.187 0 0 0 3.178-3.178" style="fill:#0090c6;stroke-width:1.10343"></path><path d="M177.962 102.165a249.2 249.2 0 0 0-49.496 16.287c-.953.397-1.033 1.43-.715 2.225.636 1.509 1.59 1.588 2.78 1.032 15.414-6.832 31.62-12.235 48.464-15.81 33.368-7.15 68.165-7.15 101.454 0 16.843 3.575 33.13 8.978 48.463 15.81 1.27.556 2.145.477 2.78-1.032.398-.795.318-1.828-.715-2.225-15.65-7.07-32.255-12.553-49.416-16.287-34.003-7.309-69.596-7.309-103.6 0" style="fill:#db5232;stroke-width:1.10343"></path><path d="M192.66 458.725V384.44h-81.99c11.997 35.434 39.406 63.876 74.124 77.223zM23.12 433.699v88.504l48.303-18.034c-20.259-20.1-36.784-44.014-48.304-70.47m367.999-49.258H269.565v45.524zM269.565 253.512v53.627h132.518zm-88.187 53.627h11.282v-82.704c-22.246 6.912-41.949 19.94-57.044 37.022zM80.003 176.687l-48.78-19.782 34.083 34.082c4.687-5.005 9.533-9.772 14.697-14.3m29.793 130.452a121 121 0 0 1 13.665-29.395l29.475 29.395zM52.117 206.48a226.1 226.1 0 0 0-28.998 48.702v-77.7z" style="fill:#fff;stroke-width:1.10343"></path><path d="M197.268 371.094c-.239-.556-.398-1.032-.636-1.51l-5.402-.079 3.495-4.051-.238-.477c-.874.159-1.748-.397-2.066-1.192-.238-.556-.238-1.112.08-1.589 0-.794 0-1.033-.795-1.43-.476-.159-.953-.397-1.589-1.033-.476-.635-.794-1.27-1.112-1.906-.636-1.272-.636-1.51-2.145-1.43-1.35 0-3.099.079-3.416-1.669-.318-1.35.476-2.304 1.35-3.019-.238-.635-.159-1.43.239-2.065-1.351-.557-1.907-2.146-1.272-3.417-1.191-.874-1.43-2.542-.556-3.654a2.5 2.5 0 0 1 .398-4.132c-.954-1.43-.239-3.416 1.51-3.813-.478-1.827 1.111-3.496 2.939-3.178 0-1.827 1.986-3.019 3.575-2.224 0-2.066 2.463-3.178 4.052-1.987.794-1.827 3.416-1.986 4.449-.238.158-2.145 3.177-2.542 3.972-.477.397-1.827 2.78-2.145 3.734-.715.397-.556 1.112-.953 1.827-.874.16-1.43 1.669-2.304 2.94-1.827.476-1.271 2.065-1.589 2.94-.715.397-1.271 2.065-1.668 3.018-.794.398-1.272 2.066-1.669 3.02-.715.397-1.43 2.224-1.748 3.098-.636h1.27a3.89 3.89 0 0 1 2.067-3.257v-1.271h-2.066v-3.099h2.066V310h3.495v2.622h2.066v3.099h-2.066v1.27c.397.239.715.477 1.033.716.636.635 1.033 1.589 1.112 2.542h1.192c.953-1.112 2.78-.794 3.178.636.953-.954 2.622-.557 3.019.715.953-.874 2.542-.477 2.94.794.953-.874 2.542-.556 2.939.715a2.198 2.198 0 0 1 2.94 1.827c.715-.079 1.43.318 1.906.874.954-1.43 3.258-1.112 3.734.715.715-2.065 3.655-1.668 3.893.477 1.033-1.748 3.575-1.589 4.45.238 1.588-1.191 3.972-.079 3.972 1.987 1.589-.795 3.575.397 3.654 2.224 1.748-.318 3.416 1.35 2.86 3.178 1.748.397 2.463 2.383 1.51 3.813a2.5 2.5 0 0 1 .397 4.132c.874 1.112.636 2.78-.556 3.654a2.406 2.406 0 0 1-1.192 3.417c.318.635.397 1.43.16 2.065.873.715 1.668 1.669 1.43 3.02-.319 1.747-2.146 1.668-3.497 1.668-1.43-.08-1.509.158-2.145 1.43-.317.635-.635 1.27-1.112 1.906-.556.636-1.112.874-1.51 1.033-.794.397-.873.636-.873 1.43.318.477.318 1.033.08 1.59-.319.794-1.113 1.35-1.987 1.19-.08.16-.159.319-.318.478l3.575 4.051-5.481.08c-.16.477-.398.953-.636 1.51-20.418-9.375-44.332-9.375-64.908 0" style="fill:#a38d44;stroke-width:1.10343"></path><path d="M228.65 336.773c0-.635.476-1.112 1.111-1.112.636 0 1.113.477 1.113 1.112s-.477 1.112-1.113 1.112a1.086 1.086 0 0 1-1.112-1.112M228.65 334.072c0-.636.476-1.192 1.111-1.192.636 0 1.113.556 1.113 1.192 0 .556-.477 1.112-1.113 1.112-.635 0-1.112-.556-1.112-1.112M228.65 331.291c0-.635.476-1.112 1.111-1.112.636 0 1.113.477 1.113 1.112s-.477 1.113-1.113 1.113a1.086 1.086 0 0 1-1.112-1.113M228.65 328.59c0-.636.476-1.112 1.111-1.112.636 0 1.113.476 1.113 1.112 0 .556-.477 1.112-1.113 1.112-.635 0-1.112-.556-1.112-1.112M228.65 325.81c0-.636.476-1.113 1.111-1.113.636 0 1.113.477 1.113 1.112s-.477 1.113-1.113 1.113a1.086 1.086 0 0 1-1.112-1.113M228.967 320.328c0-.477.397-.795.794-.795.477 0 .795.318.795.795 0 .476-.318.794-.795.794a.796.796 0 0 1-.794-.794M228.65 323.108c0-.635.476-1.112 1.111-1.112.636 0 1.113.477 1.113 1.112s-.477 1.112-1.113 1.112a1.086 1.086 0 0 1-1.112-1.112M229.761 342.89c-.476.16-1.191.954-1.986.954-.953 0-1.827-1.668-1.27-2.225.476-.556 1.668-.08 2.065-.874.397-.715-.08-1.906 1.191-1.747 1.272-.16.795 1.032 1.192 1.747.397.795 1.59.318 2.145.874.556.557-.318 2.225-1.27 2.225-.795 0-1.59-.795-2.067-.953" style="fill:#57175e;stroke-width:1.10343"></path><path d="m248.328 473.488 4.032.072 2.664-3.024h-4.032zM315.792 473.488l-3.96.072-2.664-3.024h4.032z" style="fill:#57175e" transform="matrix(1.10343 0 0 1.10343 -81.513 -153.593)"></path><path d="M228.65 345.592c0-.636.476-1.112 1.111-1.112.636 0 1.113.476 1.113 1.112 0 .635-.477 1.112-1.113 1.112a1.086 1.086 0 0 1-1.112-1.112M184.08 344.162c0-.636.476-1.113 1.112-1.113.635 0 1.112.477 1.112 1.113 0 .635-.477 1.112-1.112 1.112a1.086 1.086 0 0 1-1.113-1.112M183.682 340.666c0-.636.477-1.112 1.112-1.112s1.113.476 1.113 1.112c0 .556-.477 1.112-1.113 1.112-.635 0-1.112-.556-1.112-1.112M184.556 337.011c0-.556.477-1.112 1.112-1.112s1.112.556 1.112 1.112c0 .636-.476 1.192-1.112 1.192-.635 0-1.112-.556-1.112-1.192M186.383 333.913c0-.636.556-1.112 1.113-1.112.635 0 1.191.476 1.191 1.112s-.556 1.112-1.191 1.112c-.557 0-1.113-.476-1.113-1.112M189.402 331.53c0-.636.556-1.192 1.113-1.192.635 0 1.112.556 1.112 1.192 0 .556-.477 1.112-1.112 1.112-.557 0-1.113-.556-1.113-1.112M193.057 329.226c0-.556.477-1.113 1.112-1.113.556 0 1.112.557 1.112 1.113 0 .635-.556 1.191-1.112 1.191-.635 0-1.112-.556-1.112-1.191M196.79 328.272c0-.635.557-1.112 1.113-1.112.636 0 1.192.477 1.192 1.112s-.556 1.113-1.192 1.113c-.556 0-1.112-.477-1.112-1.113M207.04 330.179c0-.556.476-.953 1.032-.953.477 0 .954.397.954.953s-.477.953-.954.953c-.556 0-1.032-.397-1.032-.953M205.61 333.675c0-.556.397-.954.953-.954s.953.398.953.954-.397.953-.953.953-.954-.397-.954-.953M205.61 337.568c0-.557.397-.954.953-.954s.953.397.953.954-.397.953-.953.953-.954-.397-.954-.953M186.065 350.915c0-.636.477-1.192 1.113-1.192.635 0 1.112.556 1.112 1.192 0 .556-.477 1.112-1.112 1.112s-1.113-.556-1.113-1.112M222.452 321.36c0-.397.398-.794.795-.794.476 0 .874.397.874.794 0 .477-.398.795-.874.795a.796.796 0 0 1-.795-.795M210.853 325.094c0-.476.477-.953.953-.953.557 0 .954.477.954.953 0 .557-.397 1.033-.954 1.033-.476 0-.953-.476-.953-1.033M216.494 322.95c0-.477.318-.795.794-.795s.795.318.795.794a.796.796 0 0 1-.795.795.796.796 0 0 1-.794-.795M219.433 322.155c0-.477.398-.795.874-.795.397 0 .795.318.795.795a.796.796 0 0 1-.795.794c-.476 0-.874-.318-.874-.794M201.002 327.24c0-.557.476-1.113 1.112-1.113.635 0 1.112.556 1.112 1.112 0 .636-.477 1.192-1.112 1.192s-1.112-.556-1.112-1.192M204.974 327.001c0-.556.477-1.112 1.112-1.112s1.112.556 1.112 1.112c0 .636-.476 1.192-1.112 1.192-.635 0-1.112-.556-1.112-1.192M213.475 323.744c0-.477.397-.874.874-.874.397 0 .794.397.794.874 0 .397-.397.794-.794.794-.477 0-.874-.397-.874-.794M222.929 348.293c.159-.397.715-2.066.715-2.066s-.636-.874-.556-1.27c.08-.319.556-.716.874-.795.318-.16 2.383.556 2.542.794.159.239-.874 1.51-.715 1.907.159.318 1.51.397 1.589.715 0 .318-.953 1.827-1.271 1.907s-1.43-.477-1.59-.556c-.158 0-1.667 0-1.588-.636" style="fill:#57175e;stroke-width:1.10343"></path><path d="M198.062 330.497c-.159.874-8.024 2.304-8.978 8.183-.873 5.8 4.688 8.66 4.688 8.66s.953.556 0 1.51c-.874 1.032-2.94-.319-2.94-.319s-4.767-2.86-3.893-9.692c.954-6.833 11.361-9.216 11.123-8.342" style="fill:#57175e;stroke-width:1.10343"></path><path d="M199.095 332.8s-5.403 1.987-6.753 4.53c-1.35 2.542.635 7.547.635 7.547s1.113-.874 1.987-1.113c.794-.158 1.827.16 2.94 0 1.19-.238 1.668-2.86 1.668-2.86s-.716-3.893-.716-4.687c0-1.271.239-3.416.239-3.416M195.917 344.797c.397-.318 1.589.318 2.463-.159.794-.397 1.589-1.191 1.589-1.191s.08-.239.794.317c.715.477 1.669 1.43 1.828 2.146.238.715-.795 0-.954.635-.238.556 0 1.51 0 1.51s-2.383 1.747-3.416 1.827-1.748-.715-2.304-1.827c-.636-1.113.159-.954.397-1.351.16-.397-.874-1.589-.397-1.907M185.986 352.106h2.145s.636-.873 1.033-.953c.318 0 .874.318 1.033.636.238.238.238 2.383.08 2.621-.24.239-1.749-.317-2.066-.08-.318.24.08 1.59-.239 1.749-.238.08-1.986-.318-2.224-.636-.16-.238.08-1.51.08-1.668 0-.16-.557-1.59.158-1.669M195.996 351.63c.08.476.08 2.145.08 2.145s.874.715.953 1.033c.08.397-.318.874-.556 1.112-.238.159-2.463.238-2.701.08-.239-.239.318-1.748.08-2.066-.239-.239-1.59.159-1.749-.16-.079-.317.318-2.065.557-2.224.317-.159 1.51 0 1.668 0 .159 0 1.589-.556 1.668.08M222.929 326.683s-5.88 2.145-7.865 5.164c-1.986 3.02-.795 6.992-.795 6.992s3.02-.318 3.814-.477c.794-.238 1.906.159 3.019-.08 1.112-.158 1.589-2.86 1.589-2.86s-.16-3.257-.16-4.051c0-1.271.398-4.688.398-4.688" style="fill:#57175e;stroke-width:1.10343"></path><path d="M223.167 324.3c-.874.874-10.328 4.926-11.202 9.613-.953 4.687 3.734 6.832 2.78 8.104-.555.794-6.117-1.033-4.448-8.66 1.589-7.627 13.665-9.931 12.87-9.057M215.54 342.732c0-.636.715-.16.954-.795.159-.715-.397-2.224-.239-2.542.08-.238 2.463.635 3.337.477.874-.16.715-.795 1.51-1.033.874-.239 2.621 2.78 2.145 3.654-.397.874-1.907 2.463-1.907 2.463s-2.463.954-3.496.477c-1.112-.397-2.383-2.066-2.304-2.701M199.333 335.581c-.159 5.244 1.907 9.137 3.337 8.342 1.35-.635-1.907-3.257-1.827-7.706.08-5.005 3.257-7.865 2.463-8.183-.795-.318-3.893 3.257-3.973 7.547M224.915 321.52c.318-.16.556.158.795 1.112.476 1.27-1.59 7.865-1.59 10.09s1.272 6.355.636 7.706c-.715 1.35-1.35-7.071-1.51-8.66-.158-1.589 1.59-7.468 1.43-8.66-.158-1.192-.079-1.43.24-1.589" style="fill:#57175e;stroke-width:1.10343"></path><path d="M226.98 327.001c.398.953-.635.874-.555 6.038s.794 3.972.476 5.8c-.238 1.748-1.906-4.847-1.906-6.515 0-1.748 1.589-6.276 1.986-5.323M184.874 347.34c0-.636.476-1.113 1.112-1.113s1.112.477 1.112 1.113c0 .635-.476 1.112-1.112 1.112a1.086 1.086 0 0 1-1.112-1.112M208.628 327.08c0-.556.398-.953.954-.953s.953.397.953.954-.397.953-.953.953-.954-.397-.954-.953M218.639 347.26c-.08-.635.397-1.192 1.033-1.271a1.046 1.046 0 0 1 1.191 1.033c.08.556-.317 1.112-.953 1.192a1.157 1.157 0 0 1-1.271-.954M208.47 348.055c-.16-.557.238-1.192.874-1.351.556-.08 1.191.318 1.35.874a1.236 1.236 0 0 1-.874 1.35c-.635.16-1.192-.238-1.35-.873M199.174 351.63c-.238-.636.08-1.271.715-1.43.556-.239 1.192.08 1.35.715.24.556-.079 1.191-.714 1.43-.556.159-1.192-.16-1.35-.715M207.198 341.46l1.987.795s.953-.556 1.35-.477c.318.08.715.636.795.954s-.715 2.383-1.033 2.542c-.238.159-1.43-1.033-1.827-.874-.318.08-.477 1.51-.795 1.51s-1.827-1.033-1.907-1.351c0-.318.636-1.43.715-1.589 0-.08.08-1.668.715-1.51M203.544 350.835c.08-.476.556-2.065.556-2.065s-.715-.954-.636-1.271c0-.318.557-.795.795-.874.318-.16 2.463.397 2.622.635.159.239-.795 1.59-.556 1.907.158.318 1.509.318 1.588.635 0 .318-.873 1.907-1.112 1.987-.318.159-1.51-.398-1.668-.398-.08-.079-1.669.08-1.59-.556M215.938 345.989c-.08.397-.874 1.986-.874 1.986s.476.954.397 1.35c-.159.319-.715.636-1.033.716-.238.08-2.224-.874-2.383-1.192-.16-.238 1.033-1.35.953-1.748s-1.51-.635-1.43-.953c0-.318 1.112-1.669 1.43-1.748.318 0 1.35.715 1.51.795.158 0 1.668.238 1.43.794M191.309 358.303c0-.635.477-1.112 1.112-1.112s1.113.477 1.113 1.112-.477 1.113-1.113 1.113a1.086 1.086 0 0 1-1.112-1.113M193.851 357.827c2.622.159 4.688-.874 6.038-3.655.239-.318.715-.556 1.113-.397 3.495 1.43 6.276 1.112 8.421-2.225.238-.317.794-.476 1.112-.317 3.337 1.827 6.197 1.668 8.74-1.351.238-.238.794-.318 1.112-.159 3.178 2.225 5.958 2.304 8.818-.397a.864.864 0 0 1 1.192 0c2.86 2.701 5.64 2.622 8.74.397.317-.159.953-.08 1.191.159 2.542 3.019 5.323 3.178 8.66 1.35.317-.158.874 0 1.112.318 2.224 3.337 5.005 3.655 8.342 2.225.397-.16.953.08 1.112.397 1.43 2.78 3.496 3.814 6.038 3.655l.16 1.668c-2.94.238-5.642-.874-7.39-3.893-3.575 1.35-6.832.715-9.215-2.463-3.576 1.669-6.833 1.35-9.614-1.589-3.416 2.145-6.673 2.145-9.772-.476-3.098 2.621-6.355 2.621-9.692.476-2.78 2.94-6.118 3.258-9.613 1.59-2.463 3.177-5.72 3.813-9.375 2.462-1.748 3.02-4.37 4.131-7.389 3.893zM229.205 316.673c.239-.08.398-.08.556-.08.239 0 .398 0 .557.08v-2.145h2.065v-.715h-2.065v-2.622h-1.113v2.622h-2.065v.715h2.065zM275.444 344.162c0-.636-.556-1.113-1.192-1.113-.556 0-1.112.477-1.112 1.113 0 .635.556 1.112 1.112 1.112.636 0 1.192-.477 1.192-1.112M275.761 340.666c0-.636-.476-1.112-1.112-1.112-.556 0-1.112.476-1.112 1.112 0 .556.556 1.112 1.112 1.112.636 0 1.112-.556 1.112-1.112M274.888 337.011c0-.556-.477-1.112-1.113-1.112-.556 0-1.112.556-1.112 1.112 0 .636.556 1.192 1.112 1.192.636 0 1.113-.556 1.113-1.192M273.06 333.913c0-.636-.476-1.112-1.112-1.112s-1.112.476-1.112 1.112.476 1.112 1.112 1.112 1.112-.476 1.112-1.112M270.041 331.53c0-.636-.476-1.192-1.112-1.192s-1.112.556-1.112 1.192c0 .556.476 1.112 1.112 1.112s1.112-.556 1.112-1.112M266.466 329.226c0-.556-.477-1.113-1.112-1.113s-1.112.557-1.112 1.113c0 .635.476 1.191 1.112 1.191.635 0 1.112-.556 1.112-1.191M262.653 328.272c0-.635-.477-1.112-1.113-1.112-.635 0-1.112.477-1.112 1.112s.477 1.113 1.112 1.113 1.113-.477 1.113-1.113M252.483 330.179c0-.556-.397-.953-.953-.953s-.953.397-.953.953.397.953.953.953.953-.397.953-.953M253.913 333.675c0-.556-.397-.954-.953-.954-.477 0-.953.398-.953.954s.476.953.953.953c.556 0 .953-.397.953-.953M253.913 337.568c0-.557-.397-.954-.953-.954-.477 0-.953.397-.953.954s.476.953.953.953c.556 0 .953-.397.953-.953M273.457 350.915c0-.636-.556-1.192-1.112-1.192-.635 0-1.192.556-1.192 1.192 0 .556.557 1.112 1.192 1.112.556 0 1.112-.556 1.112-1.112M237.07 321.36a.796.796 0 0 0-.794-.794.796.796 0 0 0-.794.794c0 .477.317.795.794.795s.795-.318.795-.795M248.67 325.094c0-.476-.397-.953-.953-.953-.557 0-.954.477-.954.953 0 .557.397 1.033.954 1.033s.953-.476.953-1.033M243.109 322.95c0-.477-.398-.795-.874-.795a.796.796 0 0 0-.795.794c0 .398.397.795.795.795.476 0 .874-.397.874-.795M240.09 322.155a.796.796 0 0 0-.795-.795c-.477 0-.874.318-.874.795 0 .476.397.794.874.794a.796.796 0 0 0 .795-.794M258.442 327.24c0-.557-.477-1.113-1.112-1.113-.556 0-1.033.556-1.033 1.112 0 .636.477 1.192 1.033 1.192.635 0 1.112-.556 1.112-1.192M254.628 327.001c0-.556-.556-1.112-1.112-1.112-.635 0-1.192.556-1.192 1.112 0 .636.557 1.192 1.192 1.192.556 0 1.112-.556 1.112-1.192M246.048 323.744c0-.477-.318-.874-.794-.874s-.795.397-.795.874c0 .397.318.794.795.794a.796.796 0 0 0 .794-.794" style="fill:#57175e;stroke-width:1.10343"></path><path d="M236.594 348.293c-.08-.397-.636-2.066-.636-2.066s.556-.874.556-1.27c-.079-.319-.635-.716-.873-.795-.318-.16-2.384.556-2.622.794-.16.239.874 1.51.794 1.907-.159.318-1.589.397-1.589.715s.954 1.827 1.271 1.907c.318.08 1.43-.477 1.59-.556.079 0 1.668 0 1.509-.636M261.381 330.497c.239.874 8.104 2.304 8.978 8.183.953 5.8-4.687 8.66-4.687 8.66s-.874.556 0 1.51c.953 1.032 2.94-.319 2.94-.319s4.845-2.86 3.892-9.692c-.874-6.833-11.36-9.216-11.123-8.342" style="fill:#57175e;stroke-width:1.10343"></path><path d="M260.428 332.8s5.403 1.987 6.753 4.53c1.271 2.542-.635 7.547-.635 7.547s-1.192-.874-1.987-1.113c-.794-.158-1.906.16-3.019 0-1.112-.238-1.589-2.86-1.589-2.86s.715-3.893.715-4.687c0-1.271-.238-3.416-.238-3.416M263.606 344.797c-.397-.318-1.668.318-2.463-.159-.794-.397-1.589-1.191-1.589-1.191s-.159-.239-.874.317c-.715.477-1.589 1.43-1.827 2.146-.159.715.794 0 1.033.635.238.556 0 1.51 0 1.51s2.304 1.747 3.337 1.827c1.032.08 1.747-.715 2.383-1.827s-.238-.954-.397-1.351c-.239-.397.794-1.589.397-1.907M273.537 352.106h-2.145s-.715-.873-1.033-.953c-.318 0-.874.318-1.112.636-.16.238-.239 2.383 0 2.621.159.239 1.748-.317 1.986-.08.318.24-.08 1.59.238 1.749.318.08 2.066-.318 2.225-.636.159-.238 0-1.51 0-1.668 0-.16.476-1.59-.16-1.669M263.447 351.63c-.08.476-.08 2.145-.08 2.145s-.873.715-.873 1.033c-.08.397.238.874.556 1.112.238.159 2.383.238 2.622.08.238-.239-.318-1.748 0-2.066.238-.239 1.589.159 1.668-.16.159-.317-.238-2.065-.556-2.224-.238-.159-1.51 0-1.668 0-.16 0-1.59-.556-1.669.08M236.594 326.683s5.958 2.145 7.865 5.164c1.986 3.02.795 6.992.795 6.992s-2.94-.318-3.814-.477c-.794-.238-1.827.159-2.94-.08-1.191-.158-1.668-2.86-1.668-2.86s.16-3.257.16-4.051c0-1.271-.398-4.688-.398-4.688" style="fill:#57175e;stroke-width:1.10343"></path><path d="M236.435 324.3c.795.874 10.249 4.926 11.202 9.613.874 4.687-3.734 6.832-2.86 8.104.636.794 6.117-1.033 4.528-8.66-1.588-7.627-13.744-9.931-12.87-9.057M244.062 342.732c-.08-.636-.795-.16-.953-.795-.239-.715.317-2.224.238-2.542-.159-.238-2.463.635-3.416.477-.874-.16-.715-.795-1.51-1.033-.794-.239-2.542 2.78-2.145 3.654.477.874 1.986 2.463 1.986 2.463s2.384.954 3.496.477c1.112-.397 2.304-2.066 2.304-2.701M260.19 335.581c.08 5.244-1.986 9.137-3.416 8.342-1.272-.635 1.986-3.257 1.906-7.706-.159-5.005-3.257-7.865-2.383-8.183.715-.318 3.813 3.257 3.893 7.547M234.687 321.52c-.318-.16-.556.158-.874 1.112-.397 1.27 1.669 7.865 1.669 10.09s-1.35 6.355-.636 7.706 1.35-7.071 1.51-8.66c.158-1.589-1.59-7.468-1.43-8.66.158-1.192.079-1.43-.239-1.589" style="fill:#57175e;stroke-width:1.10343"></path><path d="M232.542 327.001c-.397.953.636.874.556 6.038s-.715 3.972-.476 5.8c.317 1.748 1.906-4.847 1.906-6.515 0-1.748-1.589-6.276-1.986-5.323M274.65 347.34c0-.636-.557-1.113-1.113-1.113-.636 0-1.112.477-1.112 1.113 0 .635.476 1.112 1.112 1.112.556 0 1.112-.477 1.112-1.112M250.974 327.08c0-.556-.477-.953-1.033-.953-.477 0-.953.397-.953.954s.476.953.953.953c.556 0 1.033-.397 1.033-.953M240.884 347.26a1.157 1.157 0 0 0-.953-1.271c-.636-.08-1.192.397-1.271 1.033-.08.556.397 1.112 1.032 1.192.557.079 1.113-.398 1.192-.954M251.133 348.055c.08-.557-.318-1.192-.874-1.351-.636-.08-1.271.318-1.35.874-.16.636.238 1.192.873 1.35.556.16 1.192-.238 1.35-.873M260.349 351.63c.159-.636-.16-1.271-.715-1.43-.636-.239-1.272.08-1.43.715-.16.556.158 1.191.715 1.43.635.159 1.191-.16 1.43-.715M252.324 341.46c-.397.16-1.986.795-1.986.795s-.953-.556-1.27-.477c-.398.08-.716.636-.795.954s.715 2.383.953 2.542c.318.159 1.51-1.033 1.827-.874.398.08.556 1.51.874 1.51s1.748-1.033 1.828-1.351c.079-.318-.636-1.43-.636-1.589-.08-.08-.159-1.668-.795-1.51M247.637 359.257c5.64 1.191 11.123 2.94 16.287 5.243l-.239.477-5.402.08 3.496 3.972c-.08.159-.08.318-.16.476-20.258-8.818-43.457-8.818-63.716 0l-.238-.476 3.495-3.973-5.402-.08-.238-.476a82.7 82.7 0 0 1 16.445-5.243c11.679-2.543 23.914-2.543 35.672 0M255.98 350.835c-.08-.476-.478-2.065-.478-2.065s.636-.954.557-1.271c0-.318-.477-.795-.795-.874-.238-.16-2.383.397-2.622.635-.159.239.795 1.59.636 1.907-.159.318-1.59.318-1.59.635-.078.318.795 1.907 1.113 1.987.318.159 1.43-.398 1.59-.398.158-.079 1.668.08 1.588-.556M243.585 345.989c.16.397.874 1.986.874 1.986s-.476.954-.318 1.35c.08.319.636.636.954.716s2.304-.874 2.463-1.192c.08-.238-1.113-1.35-.954-1.748.08-.397 1.43-.635 1.43-.953s-1.191-1.669-1.51-1.748c-.317 0-1.35.715-1.509.795-.08 0-1.668.238-1.43.794M268.214 358.303c0-.635-.556-1.112-1.112-1.112-.636 0-1.113.477-1.113 1.112s.477 1.113 1.113 1.113c.556 0 1.112-.477 1.112-1.113" style="fill:#57175e;stroke-width:1.10343"></path><path d="M211.33 356.794c-6.118 1.271-11.997 3.257-17.558 5.8-.397.079-.397.476-.238.794.158.477.556.556.953.318 5.482-2.463 11.202-4.37 17.24-5.641 11.838-2.542 24.231-2.542 36.148 0a82.8 82.8 0 0 1 17.082 5.64c.476.24.794.16 1.032-.317.16-.318.08-.715-.238-.795-5.64-2.542-11.44-4.528-17.558-5.8-12.076-2.62-24.708-2.62-36.863 0M228.014 320.328c0-.954.794-1.828 1.747-1.828 1.033 0 1.828.874 1.828 1.828 0 .476-.239.953-.556 1.27.159.16.317.398.476.636a2.77 2.77 0 0 0 .795-1.906 2.51 2.51 0 0 0-2.543-2.543c-1.35 0-2.542 1.112-2.542 2.543 0 .715.318 1.43.874 1.906a1.7 1.7 0 0 1 .397-.635c-.317-.318-.476-.795-.476-1.271" style="fill:#57175e;stroke-width:1.10343"></path><path d="M219.751 360.607c0-.874.636-1.589 1.51-1.589s1.589.715 1.589 1.59c0 .873-.715 1.509-1.59 1.509-.873 0-1.509-.636-1.509-1.51" style="fill:#a38d44;stroke-width:1.10343"></path><path d="m277.2 465.568 4.896-2.232 4.968 2.232-4.968 2.304zM261.792 468.232l4.392-3.24 5.256 1.152-4.32 3.24z" style="fill:#a38d44" transform="matrix(1.10343 0 0 1.10343 -81.513 -153.593)"></path><path d="M202.988 364.42c-.239-.794.318-1.668 1.191-1.827.795-.158 1.59.398 1.828 1.192.159.874-.398 1.669-1.192 1.827-.874.16-1.668-.317-1.827-1.191M239.851 360.607c0-.874-.715-1.589-1.589-1.589-.794 0-1.51.715-1.51 1.59 0 .873.716 1.509 1.51 1.509.874 0 1.59-.636 1.59-1.51" style="fill:#a38d44;stroke-width:1.10343"></path><path d="m302.4 468.232-4.32-3.24-5.328 1.152 4.392 3.24z" style="fill:#a38d44" transform="matrix(1.10343 0 0 1.10343 -81.513 -153.593)"></path><path d="M256.615 364.42c.159-.794-.398-1.668-1.192-1.827-.874-.158-1.668.398-1.827 1.192-.16.874.317 1.669 1.191 1.827.795.16 1.669-.317 1.828-1.191" style="fill:#a38d44;stroke-width:1.10343"></path><circle cx="221.261" cy="360.607" r=".715" style="fill:#57175e;stroke-width:1.10343"></circle><path d="m278.496 465.568 3.6 1.728 3.672-1.728-3.672-1.656zM263.088 467.944l3.888.864 3.24-2.376-3.888-.864z" style="fill:#57175e" transform="matrix(1.10343 0 0 1.10343 -81.513 -153.593)"></path><path d="M203.782 364.262c-.08-.397.16-.715.556-.795.398-.08.715.16.795.477.08.397-.16.795-.556.874-.318.08-.715-.159-.795-.556M238.977 360.607a.71.71 0 0 0-.715-.715c-.397 0-.635.318-.635.715 0 .398.238.715.635.715a.71.71 0 0 0 .715-.715" style="fill:#57175e;stroke-width:1.10343"></path><path d="m301.176 467.944-3.96.864-3.24-2.376 3.96-.864z" style="fill:#57175e" transform="matrix(1.10343 0 0 1.10343 -81.513 -153.593)"></path><path d="M255.74 364.262c.08-.397-.158-.715-.476-.795-.397-.08-.794.16-.874.477-.08.397.159.795.556.874.397.08.715-.159.795-.556" style="fill:#57175e;stroke-width:1.10343"></path><path d="M66.974 404.542c4.052 0 7.389 3.336 7.389 7.388s-3.337 7.389-7.389 7.389-7.31-3.337-7.31-7.389 3.258-7.388 7.31-7.388m0 3.336a4.07 4.07 0 0 0-4.052 4.052c0 2.304 1.828 4.131 4.052 4.131a4.103 4.103 0 0 0 4.131-4.13c0-2.225-1.827-4.053-4.131-4.053M83.34 433.937c2.066 0 3.893.795 5.164 2.145a7.27 7.27 0 0 1 2.145 5.164 7.29 7.29 0 0 1-7.309 7.31 7.27 7.27 0 0 1-5.164-2.146c-1.35-1.27-2.145-3.178-2.145-5.164a7.29 7.29 0 0 1 7.31-7.309m0 3.257a4.07 4.07 0 0 0-4.052 4.052c0 1.113.477 2.145 1.192 2.86.715.795 1.748 1.192 2.86 1.192a4.07 4.07 0 0 0 4.052-4.052c0-1.112-.397-2.145-1.192-2.86a4.1 4.1 0 0 0-2.86-1.192" style="fill:#a38d44;stroke-width:1.10343" data-source="https://football-logos.cc"></path><!-- source: https://football-logos.cc --></svg>