<svg width="159" height="122" viewBox="0 0 159 122" fill="none" xmlns="http://www.w3.org/2000/svg">
<mask id="mask0_646_12" style="mask-type:luminance" maskUnits="userSpaceOnUse" x="0" y="0" width="159" height="122">
<path d="M158.058 0H0V121.438H158.058V0Z" fill="white"/>
</mask>
<g mask="url(#mask0_646_12)">
<path d="M151.114 4.85358L142.258 29.1374H89.9375L98.7753 4.85358H151.114Z" fill="#006937"/>
<path d="M59.3848 4.85358L68.2413 29.1374H15.8002L6.95312 4.85358H59.3848Z" fill="#FF6900"/>
<path d="M140.476 33.9991L136.935 43.7236H115.988L114.214 48.5862H135.16L131.62 58.2922H110.673L108.898 63.1548H129.845L126.304 72.8793H105.357L103.592 77.7416H124.538L120.998 87.4572H100.051L98.2758 92.3194H119.222L115.682 102.035H94.7445L92.9694 106.888H113.907L110.366 116.594H63.2501L68.5563 102.035H58.083L49.1523 77.5005L66.2982 63.1638V58.3108L82.6913 48.8738L88.1091 34.027H140.457L140.476 33.9991ZM85.3583 63.1455L87.1241 58.2922H79.3272L70.8981 63.1455H85.349H85.3583Z" fill="black"/>
<path d="M158.058 0L113.776 121.438H44.2726L0 0H62.7936L79.0289 44.652L95.3661 0H158.058ZM142.259 29.1371L151.116 4.85307H98.7767L89.9482 29.1371H142.269H142.259ZM136.934 43.7242L140.475 33.9994H88.1268L82.7089 48.8462L66.3159 58.2832V63.1365L49.17 77.4729L58.1006 102.007H68.574L63.2678 116.567H110.384L113.925 106.86H92.9871L94.7622 102.007H115.699L119.24 92.2918H98.2935L100.068 87.4296H121.015L124.556 77.7143H103.609L105.375 72.8517H126.321L129.862 63.1272H108.915L110.691 58.2649H131.637L135.178 48.5586H114.231L116.006 43.6963H136.953L136.934 43.7242ZM74.9955 47.6863L70.0052 33.9994H17.5733L47.6739 116.576H58.082L61.6227 106.87H54.69L43.4362 75.9418L61.4554 60.8722V55.481L75.0048 47.6863H74.9955ZM68.2394 29.1371L59.383 4.85307H6.95127L15.8076 29.1371H68.2487H68.2394Z" fill="white"/>
<path d="M87.123 58.293L85.3572 63.1463H70.9062L79.3353 58.2838L87.123 58.293Z" fill="white"/>
<path d="M70.0062 33.9991L74.9964 47.686L61.4563 55.4807V60.8719L43.4371 75.9415L54.6816 106.869H61.6236L58.083 116.576H47.6748L17.5742 33.9991H70.0062Z" fill="black"/>
</g>
</svg>
